<svg xmlns="http://www.w3.org/2000/svg" width="25.269" height="22.702" viewBox="0 0 25.269 22.702">
  <g id="heart" transform="translate(1 1)">
    <path id="heart-2" data-name="heart" d="M21.424,2.026A6.257,6.257,0,0,0,16.769,0a5.854,5.854,0,0,0-3.656,1.262,7.48,7.48,0,0,0-1.478,1.543,7.476,7.476,0,0,0-1.478-1.543A5.853,5.853,0,0,0,6.5,0,6.258,6.258,0,0,0,1.846,2.026,7.274,7.274,0,0,0,0,6.993a8.661,8.661,0,0,0,2.308,5.669,49.211,49.211,0,0,0,5.777,5.423c.8.682,1.708,1.456,2.65,2.279a1.366,1.366,0,0,0,1.8,0c.942-.824,1.85-1.6,2.651-2.28a49.188,49.188,0,0,0,5.777-5.422,8.66,8.66,0,0,0,2.308-5.669A7.273,7.273,0,0,0,21.424,2.026Zm0,0" transform="translate(0 0)" fill="#a7a7a7" stroke="#fff" stroke-width="2"/>
  </g>
</svg>
