<svg xmlns="http://www.w3.org/2000/svg" width="45.056" height="47.95" viewBox="0 0 45.056 47.95">
  <g id="Component_143_1" data-name="Component 143 – 1" transform="translate(1.125 0.993)">
    <path id="Path_46945" data-name="Path 46945" d="M5271.82,1564.238c-3.322-.307-6.8-.427-9.563-2.924,2.971-1.635,3.476-4.376,3.732-7.154.261-2.824.162-5.683.509-8.495.388-3.149,1.578-6.05,4.7-7.753,2.936-1.6,6.071-2.284,9.238-.616a8.448,8.448,0,0,0,3.208,1.041c2.613.26,4,1.928,4.9,4.055,1.33,3.132,1.118,6.4.964,9.668-.036.78-.12,1.562-.094,2.34.094,2.813.824,5.348,3.751,6.952-2.8,2.236-6.108,2.607-9.493,2.742q-2.919,8.006-5.823,15.963l-.26.021Z" transform="translate(-5256.302 -1536.331)" fill="none" stroke="#fff" stroke-width="2"/>
    <path id="Path_46946" data-name="Path 46946" d="M5266.125,1678.768h3.1c-.705-2.783-2.628-4.589-4.707-6.67.678.241,1.08.349,1.449.521,2.261,1.053,4.531,2.09,6.766,3.19a8.086,8.086,0,0,1,4.589,5.872c.487,2.387.924,4.783,1.409,7.308h-42.721c.409-3.479.61-6.906,2.329-9.974a7.235,7.235,0,0,1,2.667-2.664,101.594,101.594,0,0,1,9.251-4.422c-1.89,2.04-3.823,3.973-4.655,6.746l2.937.178c.052.217.1.3.078.348-.979,1.688-.01,2.55,1.446,3.4,2.243,1.308,4.394,2.755,6.549,4.189a1.261,1.261,0,0,0,1.606-.047c2.521-1.623,5.043-3.25,7.624-4.788a1.269,1.269,0,0,0,.663-1.819A13.783,13.783,0,0,1,5266.125,1678.768Z" transform="translate(-5236.009 -1643.034)" fill="none" stroke="#fff" stroke-width="2"/>
  </g>
</svg>
