<svg xmlns="http://www.w3.org/2000/svg" width="140" height="77.728" viewBox="0 0 140 77.728">
  <g id="Component_62_9" data-name="Component 62 – 9" transform="translate(1 0.5)">
    <text id="النظام_الغذائي_اليوم" data-name="النظام الغذائي اليوم" transform="translate(69 67.228)" fill="#fff" font-size="17" font-family="Cairo-Regular, Cairo"><tspan x="-69" y="0">النظام الغذائي اليوم</tspan></text>
    <g id="Group_9610" data-name="Group 9610" transform="translate(43.226)">
      <path id="Path_46934" data-name="Path 46934" d="M5090.608,1440.022a18.379,18.379,0,1,1,18.45,18.327A18.262,18.262,0,0,1,5090.608,1440.022Zm18.436-12.311a12.291,12.291,0,1,0,12.256,12.332A12.224,12.224,0,0,0,5109.044,1427.711Z" transform="translate(-5082.637 -1421.617)" fill="none" stroke="#fff" stroke-width="1"/>
      <path id="Path_46935" data-name="Path 46935" d="M5066.636,1422.251v8.228l.648-.02v-8.349c.945.636.945.636.945,4.094v4.2l.648.044c.039-1.325.094-2.651.111-3.977a29.46,29.46,0,0,1,.229-4.227c1.093,1.169.536,2.619.631,3.935.1,1.408.022,2.828.022,4.243l.626.006v-8.118l.552-.125a3.148,3.148,0,0,1,.443.989c.166,2.621.423,5.248.352,7.865-.03,1.106-.788,2.19-1.2,3.288a6.034,6.034,0,0,0-.664,1.96c.066,6.83.195,13.659.326,20.488.021,1.143-.181,1.891-1.607,1.93-1.6.044-1.823-.792-1.791-2.069.163-6.67.329-13.341.4-20.013a7.28,7.28,0,0,0-.821-2.367c-.4-1.058-1.157-2.108-1.163-3.164-.015-2.777.29-5.556.482-8.333a1.8,1.8,0,0,1,.229-.535Z" transform="translate(-5065.325 -1421.954)" fill="#fff"/>
      <path id="Path_46936" data-name="Path 46936" d="M5219.494,1440.757c0,5.463-.007,10.926.006,16.388,0,1.112-.136,1.933-1.591,1.95-1.416.017-1.85-.585-1.806-1.9.167-4.988.319-9.977.4-14.966a8.375,8.375,0,0,0-.613-2.115,8.837,8.837,0,0,1-.682-2.864c.4-4.325.958-8.635,1.49-12.947a1.938,1.938,0,0,1,.517-1.118,1.606,1.606,0,0,1,1.2-.484,1.392,1.392,0,0,1,.7,1.034,25.962,25.962,0,0,1,.042,2.833q0,7.093,0,14.186Z" transform="translate(-5167.951 -1422.35)" fill="#fff"/>
      <path id="Path_46938" data-name="Path 46938" d="M5131.512,1462.521c2.464-2.006,4.737-2.1,6.571-.365a4.758,4.758,0,0,1,.145,6.8,56.072,56.072,0,0,1-6.024,5.2,1.191,1.191,0,0,1-1.09.1c-2.7-1.646-5.3-3.43-6.885-6.282a4.7,4.7,0,0,1,2.835-6.918A4.228,4.228,0,0,1,5131.512,1462.521Z" transform="translate(-5105.228 -1448.516)" fill="#fff"/>
    </g>
  </g>
</svg>
