<svg xmlns="http://www.w3.org/2000/svg" width="69.217" height="67.84" viewBox="0 0 69.217 67.84">
  <g id="Component_9_10" data-name="Component 9 – 10" transform="translate(0 0.503)">
    <path id="Path_47028" data-name="Path 47028" d="M3886.022,1576.441c-2.054-1.9-3.936-3.678-5.868-5.375a1.768,1.768,0,0,0-1.379-.377c-3.406.632-6.8,1.353-10.2,2.01a8.013,8.013,0,0,1-2.016.131,2.528,2.528,0,0,1-2.229-2.364,2.559,2.559,0,0,1,1.638-2.814c1.821-.553,3.684-.91,5.534-1.316,2.306-.506,4.62-.965,6.927-1.466a5.071,5.071,0,0,1,4.581,1.021c2.99,2.428,6.033,4.76,9.078,7.087a12.268,12.268,0,0,1,4.153,6.874c.78,2.921,1.472,5.879,2.134,8.844.192.86.537,1.043,1.2,1.031,2.35-.042,4.7-.029,7.051-.012,1.888.014,3.1,1.1,3.09,2.735a2.842,2.842,0,0,1-3.125,2.863q-4.964-.025-9.929-.108c-1.809-.03-2.514-.753-3.1-2.839-.526-1.871-1.142-3.7-1.759-5.683l-10.029,6.612c1.039,2.454,2.021,4.8,3.021,7.129.973,2.267,1.981,4.511,2.942,6.785,1.155,2.73.271,4.708-2.253,4.738-6.2.072-12.392.03-18.588-.014a2.719,2.719,0,0,1-2.6-2.811,2.674,2.674,0,0,1,2.672-2.7c2.92-.028,5.841.017,8.761-.017,1.3-.015,2.6-.146,4.117-.237-1.316-1.959-2.519-3.759-3.73-5.551-1.631-2.411-3.287-4.8-4.9-7.227-2.083-3.14-1.954-5.047.792-7.339a78.176,78.176,0,0,1,6.552-4.607c1.959-1.322,3.952-2.569,5.924-3.863C3884.943,1577.277,3885.381,1576.917,3886.022,1576.441Z" transform="translate(-3840.994 -1561.83)" fill="none" stroke="#fff" stroke-width="1"/>
    <path id="Path_47029" data-name="Path 47029" d="M4008.431,1567.836a7.627,7.627,0,0,1-5.341-2.918,7.19,7.19,0,0,1-.036-8.6,6.584,6.584,0,0,1,10.006-.654,7.1,7.1,0,0,1-1.131,10.8A19.162,19.162,0,0,1,4008.431,1567.836Z" transform="translate(-3948.99 -1553.662)" fill="none" stroke="#fff" stroke-width="1"/>
    <path id="Path_47030" data-name="Path 47030" d="M3894.7,1757.323c-1.175,1.147-2.334,2.318-3.527,3.435q-4.776,4.474-9.578,8.91c-1.6,1.478-3.207,1.445-4.3-.055a2.507,2.507,0,0,1,.063-3.341c2.809-3,5.655-5.94,8.51-8.871a1.61,1.61,0,0,1,1.066-.449c2.521-.038,5.043-.02,7.565-.02C3894.567,1757.062,3894.633,1757.193,3894.7,1757.323Z" transform="translate(-3850.746 -1703.919)" fill="none" stroke="#fff" stroke-width="1"/>
    <rect id="Rectangle_10812" data-name="Rectangle 10812" width="30" height="4" rx="2" transform="translate(0 16.847)" fill="#fff"/>
    <rect id="Rectangle_10813" data-name="Rectangle 10813" width="24" height="2" rx="1" transform="translate(0 25.847)" fill="#fff"/>
    <rect id="Rectangle_10814" data-name="Rectangle 10814" width="24" height="4" rx="2" transform="translate(0 32.847)" fill="#fff"/>
  </g>
</svg>
