<svg xmlns="http://www.w3.org/2000/svg" width="56" height="45" viewBox="0 0 56 45">
  <path id="image" d="M50.75,49.5H5.25A5.447,5.447,0,0,1,0,43.875V10.125A5.447,5.447,0,0,1,5.25,4.5h45.5A5.447,5.447,0,0,1,56,10.125v33.75A5.447,5.447,0,0,1,50.75,49.5ZM12.25,11.062a6.355,6.355,0,0,0-6.125,6.563,6.355,6.355,0,0,0,6.125,6.563,6.355,6.355,0,0,0,6.125-6.562A6.355,6.355,0,0,0,12.25,11.062ZM7,42H49V28.875L39.428,18.619a1.252,1.252,0,0,0-1.856,0L22.75,34.5l-6.072-6.506a1.252,1.252,0,0,0-1.856,0L7,36.375Z" transform="translate(0 -4.5)" fill="#898989"/>
</svg>
