<svg xmlns="http://www.w3.org/2000/svg" width="24" height="22" viewBox="0 0 24 22">
  <path id="Icon_awesome-arrow-right" data-name="Icon awesome-arrow-right" d="M10.2,1.474,11.393.355a1.338,1.338,0,0,1,1.816,0l10.413,9.788a1.154,1.154,0,0,1,0,1.708L13.209,21.645a1.338,1.338,0,0,1-1.816,0L10.2,20.526a1.161,1.161,0,0,1,.021-1.728l6.455-5.783H1.286A1.246,1.246,0,0,1,0,11.806V10.194A1.246,1.246,0,0,1,1.286,8.985H16.68L10.226,3.2A1.153,1.153,0,0,1,10.2,1.474Z" transform="translate(24 22) rotate(180)" fill="#62d66e"/>
</svg>
