<svg xmlns="http://www.w3.org/2000/svg" width="32" height="32" viewBox="0 0 32 32">
  <path id="calendar" d="M0,29a3.237,3.237,0,0,0,3.429,3H28.571A3.237,3.237,0,0,0,32,29V12H0ZM22.857,16.75a.811.811,0,0,1,.857-.75h2.857a.811.811,0,0,1,.857.75v2.5a.811.811,0,0,1-.857.75H23.714a.811.811,0,0,1-.857-.75Zm0,8a.811.811,0,0,1,.857-.75h2.857a.811.811,0,0,1,.857.75v2.5a.811.811,0,0,1-.857.75H23.714a.811.811,0,0,1-.857-.75Zm-9.143-8a.811.811,0,0,1,.857-.75h2.857a.811.811,0,0,1,.857.75v2.5a.811.811,0,0,1-.857.75H14.571a.811.811,0,0,1-.857-.75Zm0,8a.811.811,0,0,1,.857-.75h2.857a.811.811,0,0,1,.857.75v2.5a.811.811,0,0,1-.857.75H14.571a.811.811,0,0,1-.857-.75Zm-9.143-8A.811.811,0,0,1,5.429,16H8.286a.811.811,0,0,1,.857.75v2.5a.811.811,0,0,1-.857.75H5.429a.811.811,0,0,1-.857-.75Zm0,8A.811.811,0,0,1,5.429,24H8.286a.811.811,0,0,1,.857.75v2.5a.811.811,0,0,1-.857.75H5.429a.811.811,0,0,1-.857-.75ZM28.571,4H25.143V1A1.082,1.082,0,0,0,24,0H21.714a1.082,1.082,0,0,0-1.143,1V4H11.429V1a1.082,1.082,0,0,0-1.143-1H8A1.082,1.082,0,0,0,6.857,1V4H3.429A3.237,3.237,0,0,0,0,7v3H32V7A3.237,3.237,0,0,0,28.571,4Z" fill="#62d66e"/>
</svg>
