<svg xmlns="http://www.w3.org/2000/svg" width="15.618" height="15.612" viewBox="0 0 15.618 15.612">
  <g id="NKdttM" transform="translate(0)">
    <g id="Group_9564" data-name="Group 9564">
      <path id="Path_46927" data-name="Path 46927" d="M3435.462,1537.65a7.809,7.809,0,1,1-7.782-7.823A7.8,7.8,0,0,1,3435.462,1537.65Zm-1.242-.05a6.565,6.565,0,1,0-6.526,6.59A6.558,6.558,0,0,0,3434.22,1537.6Z" transform="translate(-3419.845 -1529.827)" fill="#62d86e"/>
      <path id="Path_46929" data-name="Path 46929" d="M3477.85,1554.825c0-.7,0-1.4,0-2.1,0-.43.178-.734.646-.72.432.014.6.309.6.709,0,1.193-.019,2.387.018,3.579a1.024,1.024,0,0,0,.357.686c.727.57,1.49,1.094,2.247,1.626.364.256.588.574.293.979s-.675.291-1.031.037c-.9-.645-1.827-1.263-2.7-1.951a1.374,1.374,0,0,1-.416-.874C3477.807,1556.146,3477.85,1555.484,3477.85,1554.825Z" transform="translate(-3470.663 -1549.264)" fill="#62d86e"/>
    </g>
  </g>
</svg>
