<svg xmlns="http://www.w3.org/2000/svg" width="50.06" height="57.808" viewBox="0 0 50.06 57.808">
  <g id="Component_144_1" data-name="Component 144 – 1" transform="translate(1.001 1.002)">
    <path id="Path_46941" data-name="Path 46941" d="M5543.528,1630.708a6.669,6.669,0,0,1-.005.923c-.626,4.849.6,9.358,2.708,13.792,1.77,3.717,3.174,7.578,4.922,11.813,1.528-3.538,2.866-6.636,4.2-9.734.145-.335.268-.678.421-1.01,2.353-5.095,4.982-10.151,2.284-15.885,3.3,1.259,6.242,2.417,9.214,3.5a7.758,7.758,0,0,1,4.864,4.427,41.512,41.512,0,0,1,2.793,13.932,2.848,2.848,0,0,1-2.358,3.1c-10.881,3.377-21.949,4.632-33.3,2.4-3.407-.67-6.745-1.627-10.113-2.453a2.664,2.664,0,0,1-2.281-2.957,41.681,41.681,0,0,1,2.745-13.94,8.1,8.1,0,0,1,5.362-4.669C5537.81,1632.989,5540.556,1631.847,5543.528,1630.708Z" transform="translate(-5526.878 -1603.271)" fill="none" stroke="#fff" stroke-width="2"/>
    <path id="Path_46942" data-name="Path 46942" d="M5569.235,1554.823c3.114.445,6.741,1.119,9.791,3.188,2.815,1.91,3.51,4.657,3.258,7.707-.107,1.3-.063,2.6-.141,3.9-.218,3.676-3.385,11.455-8.483,13.541-3.13,1.28-6.059.984-8.416-1.149a23.707,23.707,0,0,1-4.21-5.353,11.691,11.691,0,0,1-1.905-5.052,43.647,43.647,0,0,1,.384-10.1C5560.113,1558.1,5564.944,1554.924,5569.235,1554.823Z" transform="translate(-5546.276 -1554.823)" fill="none" stroke="#fff" stroke-width="2"/>
    <path id="Path_46943" data-name="Path 46943" d="M5584.158,1668.75c-.8-4.42-1.576-8.845-2.415-13.26-.257-1.356.938-1.715,1.791-1.992a3.212,3.212,0,0,1,2.35.449,2.232,2.232,0,0,1,.945,1.808c-.689,4.325-1.527,8.63-2.32,12.941Z" transform="translate(-5559.977 -1617.855)" fill="none" stroke="#fff" stroke-width="2"/>
    <path id="Path_46944" data-name="Path 46944" d="M5580.211,1639.479h6.39l-3.16,4.474C5582.282,1642.347,5581.257,1640.926,5580.211,1639.479Z" transform="translate(-5559.075 -1608.942)" fill="none" stroke="#fff" stroke-width="2"/>
  </g>
</svg>
