<svg width="13" height="14" viewBox="0 0 13 14" fill="none" xmlns="http://www.w3.org/2000/svg">
<path d="M12.4034 8.14655C12.4034 8.14655 12.1801 7.74473 11.9504 7.52091C11.4723 7.05514 10.7551 7.18578 10.3085 7.387C9.76305 7.63281 8.68304 8.41746 8.19381 8.77741L8.1067 2.0835C8.10167 1.69742 7.78441 1.38831 7.39833 1.39333C7.01191 1.39803 6.70313 1.71495 6.70816 2.1017L6.75248 5.50671L6.14755 5.5459L6.09413 1.44162C6.08911 1.05554 5.77184 0.746428 5.38577 0.751453C4.99935 0.756148 4.69057 1.07307 4.6956 1.45982L4.74995 5.63585L4.14502 5.67504L4.09896 2.13566C4.09393 1.74958 3.77667 1.44046 3.39059 1.44549C3.00417 1.45018 2.69539 1.76711 2.70042 2.15386L2.74742 5.765L2.09229 5.8068L2.06198 3.42784C2.05731 3.06915 1.76253 2.78194 1.40383 2.78661C1.04514 2.79128 0.7576 3.0864 0.762598 3.44476L0.850342 10.1367C0.865894 11.3317 1.69663 12.3618 2.86153 12.6282L5.0013 13.1184C5.96452 13.3393 6.9741 13.0422 7.66402 12.3341L10.1794 9.75237L12.4034 8.14655Z" fill="#FCBF00"/>
</svg>
