<svg id="New-Rebrand" xmlns="http://www.w3.org/2000/svg" width="12.334" height="22.356" viewBox="0 0 12.334 22.356">
  <g id="Competition-Schedule_NoBroadcaster">
    <g id="Page_x5B_60v_x5D_">
      <g id="Right_x2F_Left-content">
        <g id="Left-column">
          <g id="ATOS-_x5B_60v_x5D_">
            <g id="Group-5">
              <g id="Group-5-_x5B_0v_x5D_">
                <g id="Group">
                  <g id="Group-7">
                    <g id="competition-day">
                      <path id="Medals-Copy" d="M2.136,6.665,3.292,7.821V2.656H2.136ZM9,7.821l1.156-1.156V2.656H9Zm-4.78.925.848.848H7.3l.848-.848V2.656H4.217ZM5.682,11.6h.925v-.925H5.759V11.6Zm.463,1.156a5,5,0,0,0-5.011,5.011A4.936,4.936,0,0,0,6.144,22.7a5,5,0,0,0,5.011-5.011,4.936,4.936,0,0,0-5.011-4.934ZM-.1,17.766a6.176,6.176,0,0,1,4.471-5.859H4.6V10.751l-.077-.077a.076.076,0,0,1-.077-.077L1.133,7.282A.589.589,0,0,1,.979,6.9V2.348a1.151,1.151,0,0,1,.231-.54c.154-.154.463-.231.54-.308h8.711a.668.668,0,0,1,.54.308.7.7,0,0,1,.231.54V6.9a.589.589,0,0,1-.154.385L7.84,10.6l-.154.077-.077.077v1.156h.154A6.084,6.084,0,0,1,5.99,23.856,6.205,6.205,0,0,1-.1,17.766Z" transform="translate(0.1 -1.5)" fill="#0d0d0d"/>
                    </g>
                  </g>
                </g>
              </g>
            </g>
          </g>
        </g>
      </g>
    </g>
  </g>
</svg>
