<svg id="menu_icon" data-name="menu icon" xmlns="http://www.w3.org/2000/svg" width="60" height="36" viewBox="0 0 60 36">
  <path id="Path_17883" data-name="Path 17883" d="M7,15.141H62a2.511,2.511,0,0,0,2.5-2.508h0A2.511,2.511,0,0,0,62,10.125H7a2.511,2.511,0,0,0-2.5,2.508h0A2.511,2.511,0,0,0,7,15.141Z" transform="translate(-4.5 -10.125)" fill="#62d66e"/>
  <path id="Path_17884" data-name="Path 17884" d="M6.964,21.891h54.2a2.493,2.493,0,0,0,2.464-2.508h0a2.493,2.493,0,0,0-2.464-2.508H6.964A2.493,2.493,0,0,0,4.5,19.383h0A2.493,2.493,0,0,0,6.964,21.891Z" transform="translate(-3.624 -1.383)" fill="#62d66e"/>
  <path id="Path_17885" data-name="Path 17885" d="M6.964,28.641h54.2a2.493,2.493,0,0,0,2.464-2.508h0a2.493,2.493,0,0,0-2.464-2.508H6.964A2.493,2.493,0,0,0,4.5,26.133h0A2.493,2.493,0,0,0,6.964,28.641Z" transform="translate(-3.625 7.359)" fill="#62d66e"/>
</svg>
