<svg xmlns="http://www.w3.org/2000/svg" width="22" height="22" viewBox="0 0 22 22">
  <path id="Icon_awesome-arrow-right" data-name="Icon awesome-arrow-right" d="M9.354,1.474,10.444.355a1.153,1.153,0,0,1,1.665,0l9.545,9.788a1.226,1.226,0,0,1,0,1.708l-9.545,9.793a1.153,1.153,0,0,1-1.665,0l-1.09-1.118a1.233,1.233,0,0,1,.02-1.728l5.917-5.783H1.178A1.191,1.191,0,0,1,0,11.806V10.194A1.191,1.191,0,0,1,1.178,8.985H15.29L9.374,3.2A1.224,1.224,0,0,1,9.354,1.474Z" transform="translate(22 22) rotate(180)" fill="#62d66e"/>
</svg>
