<?xml version="1.0" standalone="no"?>
<!DOCTYPE svg PUBLIC "-//W3C//DTD SVG 20010904//EN"
 "http://www.w3.org/TR/2001/REC-SVG-20010904/DTD/svg10.dtd">
<svg version="1.0" xmlns="http://www.w3.org/2000/svg"
 width="1840.000000pt" height="1840.000000pt" viewBox="0 0 1840.000000 1840.000000"
 preserveAspectRatio="xMidYMid meet">
<metadata>
Created by potrace 1.14, written by Peter Selinger 2001-2017
</metadata>
<g transform="translate(0.000000,1840.000000) scale(0.100000,-0.100000)"
fill="#000000" stroke="none">
<path d="M10535 13624 c-33 -8 -66 -16 -73 -19 -7 -2 -14 -5 -17 -5 -12 0
-113 -55 -155 -83 -125 -86 -230 -236 -255 -366 -2 -9 -4 -16 -5 -16 -10 0
-14 -175 -6 -230 9 -56 46 -167 62 -186 8 -8 14 -19 14 -23 0 -13 52 -79 94
-121 106 -103 209 -159 351 -190 66 -15 263 -17 271 -3 3 4 9 6 14 3 5 -3 34
3 64 14 31 11 56 18 56 16 0 -6 138 73 162 93 42 34 114 108 138 142 34 47 73
120 64 120 -3 0 -2 6 4 13 21 25 43 140 43 222 0 249 -146 467 -386 576 -63
28 -71 31 -154 48 -66 13 -217 11 -286 -5z"/>
<path d="M13097 11764 c-3 -3 -31 -7 -63 -9 -33 -3 -70 -7 -84 -10 -76 -15
-127 -25 -145 -28 -11 -2 -27 -7 -35 -10 -8 -3 -49 -15 -90 -27 -41 -11 -103
-34 -138 -51 -35 -16 -65 -29 -68 -29 -2 0 -22 -11 -44 -25 -22 -14 -40 -22
-40 -18 0 5 -5 0 -11 -9 -5 -10 -14 -18 -19 -18 -34 0 -210 -157 -297 -265
-52 -63 -151 -276 -145 -307 1 -5 -2 -8 -6 -8 -4 0 -8 -8 -8 -17 -1 -19 -10
-63 -20 -103 -12 -43 -13 -314 -3 -360 6 -25 12 -54 14 -65 43 -240 230 -491
492 -658 54 -35 364 -196 376 -196 3 0 39 -14 187 -75 74 -31 138 -56 142 -56
4 0 35 -13 70 -29 35 -15 90 -39 123 -51 33 -13 63 -28 66 -32 3 -5 10 -8 15
-6 8 2 135 -59 223 -108 64 -36 118 -100 129 -156 1 -5 3 -9 3 -10 7 -15 3
-92 -7 -126 -12 -42 -71 -131 -87 -132 -5 0 -21 -8 -35 -18 -40 -27 -159 -67
-232 -78 -64 -9 -287 -2 -328 10 -9 3 -34 8 -55 11 -134 21 -388 133 -502 222
-6 4 -33 24 -60 43 -28 19 -55 39 -61 45 -7 5 -31 26 -55 45 -24 19 -64 54
-88 78 -24 23 -47 42 -52 42 -4 0 -29 -26 -56 -57 -26 -32 -56 -67 -66 -78
-10 -11 -44 -51 -75 -90 -31 -38 -64 -76 -72 -85 -8 -9 -31 -35 -50 -59 -19
-23 -44 -53 -55 -65 -11 -13 -40 -47 -65 -76 -25 -29 -55 -64 -67 -78 -28 -31
-33 -23 93 -164 30 -32 107 -105 172 -161 47 -40 238 -167 251 -167 6 0 11 -4
11 -10 0 -5 4 -10 10 -10 5 0 44 -17 87 -38 43 -21 114 -51 158 -66 44 -16 91
-34 105 -39 14 -5 32 -11 40 -12 8 -2 42 -10 75 -19 68 -19 142 -34 200 -42
22 -3 46 -7 54 -10 66 -22 495 -22 606 0 11 2 45 7 75 12 64 9 51 7 120 23 94
22 214 60 266 83 27 12 52 21 57 20 4 -1 7 3 7 8 0 5 3 9 8 8 6 -2 18 4 92 44
56 30 160 102 160 110 0 4 5 8 12 8 15 0 208 198 208 215 0 2 13 23 29 47 46
68 105 196 115 248 1 3 4 10 8 16 8 12 20 69 22 97 0 9 3 17 6 17 6 0 12 58
14 137 0 29 5 53 9 53 5 0 5 5 2 11 -11 16 -12 69 -2 69 4 0 5 5 2 11 -4 5 -9
36 -11 67 -2 31 -6 68 -10 82 -4 14 -8 34 -9 45 -4 26 -9 43 -23 78 -7 16 -12
31 -12 34 0 15 -64 143 -71 143 -5 0 -9 5 -9 11 0 20 -98 139 -152 185 -41 35
-215 164 -221 164 -9 0 -101 63 -109 74 -4 6 -8 8 -8 4 0 -4 -28 9 -62 29 -73
41 -284 142 -307 147 -18 3 -37 11 -101 38 -25 11 -74 31 -110 45 -36 13 -78
31 -95 38 -16 7 -77 32 -135 55 -121 49 -263 118 -268 131 -2 5 -10 9 -17 9
-8 0 -30 14 -50 32 -125 109 -98 312 50 377 69 31 109 43 148 45 9 0 17 3 17
6 0 7 222 4 270 -3 19 -3 58 -11 85 -17 28 -6 57 -13 65 -15 86 -18 236 -85
350 -157 82 -52 109 -72 173 -131 l30 -27 36 39 c20 21 48 54 63 73 44 55 82
100 103 124 11 12 34 39 50 60 17 21 41 51 55 66 14 16 36 42 50 59 14 18 34
42 45 55 11 12 32 38 48 56 15 18 38 47 52 63 14 17 25 33 25 36 0 9 -139 139
-190 179 -25 19 -47 38 -50 41 -12 14 -100 69 -109 69 -6 0 -11 4 -11 8 0 4
-30 24 -67 43 -38 18 -69 37 -71 42 -2 4 -12 7 -23 7 -10 0 -19 4 -19 10 0 5
-3 9 -7 8 -8 -1 -44 12 -88 31 -20 9 -56 23 -65 26 -3 0 -32 9 -65 19 -97 30
-170 47 -212 49 -7 0 -13 3 -13 6 0 3 -12 6 -27 7 -16 0 -53 4 -83 8 -62 9
-456 17 -463 10z"/>
<path d="M10167 11703 c-3 -7 -2 -3820 2 -3833 2 -10 1041 -5 1042 5 0 5 2
871 2 1923 l2 1912 -522 0 c-287 0 -524 -3 -526 -7z"/>
<path d="M48 11682 l-38 -3 0 -434 0 -433 603 1 602 2 1 -1440 c1 -792 2
-1444 3 -1450 1 -7 178 -10 514 -9 281 1 517 2 522 3 7 1 10 491 10 1449 l0
1447 385 -1 c212 0 410 -4 440 -8 66 -9 94 -14 98 -16 1 -2 5 -3 10 -5 4 -1
21 -5 37 -10 49 -13 160 -69 209 -105 49 -36 164 -162 195 -214 38 -64 78
-167 92 -241 12 -61 20 -230 22 -512 1 -117 5 -213 9 -213 4 0 3 -11 -2 -25
-6 -15 -6 -27 0 -30 6 -3 6 -15 0 -29 -5 -13 -6 -26 -3 -29 3 -3 7 -86 8 -184
14 -721 29 -1201 41 -1298 15 -127 22 -158 56 -260 73 -221 214 -423 398 -567
41 -32 80 -63 87 -68 61 -49 326 -159 423 -175 19 -3 47 -8 62 -11 14 -3 61
-7 102 -9 42 -2 81 -7 86 -10 6 -3 10 -3 10 2 0 4 28 8 63 8 112 -1 270 32
396 82 75 30 194 92 199 105 2 4 10 8 17 8 8 0 20 6 27 13 7 6 38 31 69 54 64
49 133 116 181 175 18 22 38 45 43 52 25 27 101 156 135 231 31 66 60 144 76
210 2 6 5 20 8 33 15 59 18 70 76 277 17 61 33 118 35 128 2 10 7 27 10 37 3
10 8 27 10 37 2 10 16 59 30 108 14 50 27 99 30 110 5 25 55 204 62 225 3 8 7
22 8 30 2 8 15 56 29 105 15 50 29 101 32 115 3 14 9 39 15 56 5 17 12 40 14
50 10 41 63 232 68 245 5 14 8 -15 11 -146 1 -39 5 -76 9 -82 4 -6 3 -14 -3
-18 -6 -4 -8 -11 -4 -16 3 -5 7 -67 10 -137 4 -129 12 -316 18 -452 9 -197 82
-415 197 -588 27 -40 49 -74 49 -77 0 -3 15 -20 33 -38 17 -19 48 -52 68 -73
66 -72 222 -194 248 -194 5 0 11 -4 13 -9 2 -4 41 -27 88 -49 254 -120 546
-151 845 -87 97 20 285 91 285 107 0 5 3 7 8 5 4 -2 21 4 37 14 17 10 45 26
63 35 17 9 32 20 32 25 0 5 7 9 15 9 8 0 15 4 15 8 0 4 13 15 29 25 50 29 251
239 251 261 0 3 7 14 16 25 65 75 170 341 190 476 2 17 6 40 8 52 3 11 8 43
12 70 3 26 8 57 11 68 2 11 6 34 8 50 3 17 7 41 10 55 5 24 10 55 19 113 5 25
16 91 32 177 3 19 7 46 9 60 2 14 7 44 10 68 4 24 8 49 9 55 1 7 5 18 9 25 5
6 6 16 3 20 -2 4 2 40 9 80 8 40 17 92 20 115 3 23 8 53 10 67 2 14 11 68 20
120 18 112 23 143 31 190 9 53 12 71 18 115 3 22 7 49 10 60 2 11 7 40 11 65
3 25 9 59 11 75 3 17 7 44 9 60 2 17 6 41 10 55 5 25 7 37 20 135 4 28 12 56
17 63 7 8 7 12 0 12 -7 0 -7 11 -2 33 10 36 18 82 26 142 3 22 7 51 10 65 2
14 7 43 10 65 3 22 8 51 10 65 3 14 7 41 9 60 3 19 7 46 10 60 2 14 7 40 10
58 3 17 7 44 10 60 2 15 7 47 10 72 9 71 10 74 18 88 5 6 6 15 4 20 -3 4 1 42
9 86 7 43 16 97 19 120 4 22 9 55 12 71 3 17 6 41 8 55 5 41 15 103 21 130 3
13 7 39 10 56 l4 32 -150 -1 c-83 -1 -150 2 -150 6 0 5 -5 5 -10 2 -9 -5 -130
-7 -270 -4 -26 0 -164 0 -185 -1 -11 0 -48 -1 -83 -3 -34 -1 -62 1 -62 4 0 3
-11 4 -24 2 -25 -5 -28 -12 -41 -108 -4 -22 -8 -51 -11 -65 -2 -14 -7 -41 -10
-60 -3 -19 -7 -41 -9 -48 -3 -7 -7 -37 -10 -65 -6 -53 -12 -92 -15 -92 -1 0
-3 -11 -5 -25 -10 -67 -15 -99 -40 -248 -8 -46 -14 -87 -13 -90 0 -4 0 -9 -2
-12 -1 -3 -3 -16 -6 -30 -5 -31 -22 -133 -30 -180 -4 -19 -8 -46 -9 -60 -2
-14 -4 -25 -5 -25 -1 0 -3 -11 -5 -25 -1 -14 -5 -39 -9 -56 -3 -17 -8 -48 -11
-68 -2 -21 -6 -46 -9 -55 -3 -9 -7 -36 -10 -61 -4 -25 -9 -58 -12 -75 -8 -39
-12 -71 -19 -124 -3 -24 -7 -47 -10 -51 -2 -4 -7 -34 -11 -66 -3 -32 -8 -62
-10 -66 -2 -3 -7 -27 -9 -51 -3 -25 -8 -56 -11 -68 -2 -13 -7 -40 -10 -59 -3
-19 -14 -87 -24 -150 -19 -114 -26 -156 -35 -215 -6 -40 -13 -85 -30 -180 -8
-44 -17 -98 -20 -120 -3 -23 -8 -52 -11 -65 -2 -14 -7 -38 -9 -55 -2 -16 -6
-41 -8 -55 -3 -14 -7 -45 -11 -70 -4 -25 -11 -67 -16 -95 -5 -27 -12 -66 -14
-85 -3 -19 -8 -45 -10 -56 -2 -12 -7 -39 -10 -60 -16 -102 -34 -164 -50 -164
-5 0 -7 -3 -3 -6 3 -3 1 -11 -4 -18 -35 -41 -48 -54 -81 -79 -46 -34 -132 -57
-195 -52 -46 4 -56 7 -115 35 -58 27 -132 116 -144 172 -9 43 -13 92 -19 243
-3 83 -7 197 -10 255 -2 58 -7 182 -10 275 -7 168 -12 250 -15 250 -1 0 -3 16
-5 35 -3 39 -29 139 -48 185 -18 44 -88 179 -96 185 -4 3 -18 21 -30 40 -39
57 -159 169 -235 219 -58 37 -159 91 -169 90 -1 0 -14 4 -29 10 -94 36 -201
53 -328 54 -115 0 -184 -11 -300 -50 -65 -22 -185 -78 -200 -93 -3 -3 -30 -22
-60 -42 -48 -33 -137 -119 -194 -189 -72 -88 -141 -248 -192 -441 -1 -5 -2 -9
-4 -10 -1 -2 -3 -12 -5 -23 -2 -11 -17 -72 -35 -135 -18 -63 -34 -122 -36
-130 -2 -8 -13 -49 -24 -90 -29 -103 -40 -142 -44 -160 -3 -13 -23 -82 -32
-115 -2 -5 -7 -26 -13 -45 -5 -19 -21 -78 -35 -130 -15 -52 -29 -104 -31 -115
-3 -11 -19 -67 -35 -125 -17 -58 -32 -114 -35 -125 -4 -25 -8 -38 -40 -150
-14 -49 -27 -97 -29 -105 -8 -40 -19 -76 -26 -85 -4 -5 -11 -21 -15 -35 -10
-36 -81 -99 -140 -126 -88 -40 -190 -32 -272 21 -103 68 -131 132 -139 323 -8
185 -12 267 -13 267 -1 0 -4 68 -6 150 -3 83 -7 186 -10 230 -3 44 -7 143 -11
220 -3 77 -7 185 -10 240 -7 184 -14 339 -19 440 -2 55 -7 156 -10 225 -13
295 -18 371 -30 431 -3 13 -8 40 -11 59 -34 222 -174 518 -344 725 -98 120
-331 325 -368 325 -5 0 -12 4 -14 8 -3 8 -124 82 -133 82 -2 0 -36 15 -77 34
-182 84 -382 131 -603 141 -44 2 -82 5 -85 6 -3 1 -9 1 -14 0 -8 -2 -167 -1
-206 0 -8 1 -35 0 -60 0 -25 0 -52 -1 -60 0 -12 0 -147 0 -250 0 -8 0 -41 -2
-73 -3 -31 -2 -57 1 -57 5 0 5 -4 6 -9 3 -7 -5 -84 -8 -131 -5 -8 0 -35 0 -60
0 -44 -1 -136 -1 -270 0 -36 0 -69 0 -75 0 -16 0 -269 0 -285 0 -8 0 -37 0
-65 0 -78 0 -86 0 -145 0 -30 0 -64 0 -75 -1 -11 -1 -24 -1 -30 -1 -5 0 -66 0
-135 0 -69 0 -145 1 -170 2 -25 1 -52 1 -60 1 -8 -1 -73 -1 -145 -1 -155 0
-137 0 -208 -3 -31 -2 -57 -1 -57 3 0 3 -24 2 -54 -1 -30 -3 -62 -3 -72 0 -9
4 -36 3 -59 0 -23 -4 -51 -4 -61 -1 -11 4 -36 5 -56 3z"/>
<path d="M15167 11683 c-4 -3 -56 -6 -116 -5 l-109 1 2 -432 1 -432 575 -2
c316 -1 587 -2 601 -3 l25 0 0 -1432 c-1 -788 0 -1440 2 -1448 3 -13 68 -15
525 -15 l522 0 0 1448 0 1447 60 0 c33 1 304 1 603 1 l542 0 0 434 0 434 -57
1 c-32 0 -67 1 -78 1 -11 0 -49 -1 -85 0 -36 0 -72 0 -80 -1 -76 -1 -148 -1
-156 1 -5 1 -13 1 -19 -1 -8 -1 -93 -1 -140 1 -5 0 -35 0 -65 0 -30 0 -62 0
-70 0 -16 0 -151 0 -185 -1 -11 0 -51 0 -90 1 -38 0 -85 0 -102 0 -27 0 -86 0
-175 0 -7 0 -62 -1 -123 -1 -60 0 -143 0 -184 0 -40 1 -75 -1 -78 -4 -2 -2
-17 0 -33 4 -16 4 -31 6 -34 2 -3 -3 -34 -4 -69 -3 -34 1 -69 2 -77 2 -8 0
-46 0 -85 0 -38 0 -85 0 -102 0 -18 0 -62 0 -98 0 -36 0 -73 0 -82 -1 -69 0
-260 1 -268 1 -5 0 -35 0 -65 0 -30 0 -62 0 -70 0 -16 0 -151 0 -185 -1 -11 0
-51 0 -90 1 -83 0 -114 0 -199 -2 -35 -1 -69 1 -74 5 -5 3 -12 3 -15 -1z"/>
<path d="M5768 6185 c-2 -2 -21 -6 -43 -9 -22 -4 -50 -9 -62 -11 -50 -8 -206
-99 -226 -131 -4 -7 -14 -19 -21 -27 -17 -16 -56 -91 -63 -121 -10 -41 -11
-159 -1 -195 28 -102 86 -172 189 -226 38 -20 70 -35 71 -35 2 1 10 -1 18 -3
63 -19 103 -28 107 -23 3 3 14 1 23 -4 10 -5 33 -12 51 -14 111 -16 251 -52
293 -74 56 -30 86 -74 88 -130 2 -71 -13 -112 -59 -152 -58 -52 -125 -72 -240
-73 -122 0 -199 29 -271 102 -39 40 -49 57 -80 133 -10 23 -15 26 -34 19 -13
-4 -45 -12 -73 -16 -27 -5 -56 -10 -62 -12 -30 -7 -49 -12 -60 -12 -24 -2 6
-108 51 -179 30 -48 105 -122 123 -122 7 0 13 -3 13 -8 0 -6 95 -55 110 -57 3
0 11 -4 18 -8 6 -5 12 -6 12 -2 0 3 9 1 20 -5 34 -18 100 -25 235 -25 107 1
142 5 197 23 209 69 320 200 320 379 1 86 -5 113 -37 179 -54 110 -188 188
-375 220 -58 10 -174 35 -180 39 -3 2 -26 6 -50 9 -64 8 -151 55 -173 93 -25
44 -28 103 -6 147 9 20 16 36 14 36 -2 0 8 12 22 26 45 45 124 75 200 76 85 1
143 -5 143 -14 0 -5 7 -8 16 -8 23 0 100 -56 128 -93 13 -17 31 -50 40 -72 22
-51 29 -54 79 -39 23 7 70 18 105 25 44 8 59 15 53 23 -6 6 -12 23 -15 38 -10
55 -64 139 -130 200 -46 42 -167 106 -216 114 -8 1 -26 6 -40 9 -24 7 -217 15
-222 10z"/>
<path d="M8697 6184 c-1 -1 -22 -5 -46 -8 -54 -6 -152 -34 -168 -48 -7 -6 -13
-8 -13 -4 0 9 -85 -39 -145 -82 -377 -271 -383 -842 -13 -1129 32 -24 72 -51
90 -59 18 -9 45 -22 61 -30 15 -9 70 -26 123 -40 80 -20 114 -23 202 -20 59 2
134 12 167 21 33 10 66 17 73 18 6 0 12 4 12 9 0 4 6 8 14 8 13 0 75 29 86 40
3 3 18 12 34 20 40 21 168 147 203 200 16 25 37 63 47 85 9 22 21 49 26 60 41
95 58 274 34 368 -7 26 -12 48 -12 50 1 11 -28 98 -40 122 -9 17 -16 32 -17
35 0 3 -18 32 -39 64 -99 153 -278 271 -471 310 -32 7 -203 15 -208 10z m127
-210 c33 -3 67 -8 84 -13 1 -1 3 -1 5 0 10 2 93 -40 140 -72 63 -43 97 -74 97
-88 0 -5 6 -11 13 -14 6 -3 21 -22 32 -43 11 -22 23 -41 26 -44 3 -3 15 -35
26 -71 22 -72 28 -202 12 -265 -5 -22 -11 -47 -14 -56 -2 -10 -15 -40 -29 -68
-113 -224 -385 -329 -622 -240 -60 22 -124 60 -163 96 -14 13 -29 24 -33 24
-5 0 -8 5 -8 11 0 6 -16 31 -36 55 -20 24 -33 44 -29 44 4 0 3 6 -3 13 -32 38
-55 134 -56 234 -1 66 3 106 11 114 6 6 9 17 7 24 -3 7 7 39 22 71 74 160 251
284 411 289 18 0 35 4 39 8 4 3 11 4 16 0 6 -3 29 -7 52 -9z"/>
<path d="M12810 6183 c-78 -10 -204 -55 -247 -88 -75 -56 -153 -163 -153 -210
0 -8 -3 -15 -7 -15 -15 0 -5 -153 13 -211 11 -33 22 -59 26 -59 5 0 8 -5 8
-12 0 -22 93 -98 155 -128 52 -25 130 -48 220 -66 11 -2 34 -7 50 -10 17 -4
40 -9 53 -10 157 -25 230 -50 275 -96 20 -21 38 -42 38 -46 1 -4 2 -29 3 -57
5 -106 -62 -179 -194 -213 -38 -10 -145 -9 -200 2 -109 22 -206 101 -242 198
-12 34 -25 55 -31 51 -6 -3 -24 -8 -41 -9 -37 -4 -165 -32 -176 -39 -5 -3 -4
-20 1 -38 6 -17 12 -39 14 -49 5 -25 36 -82 49 -90 6 -4 7 -8 2 -8 -9 0 70
-80 109 -110 35 -27 168 -80 235 -94 80 -17 269 -17 330 -1 25 7 52 14 60 16
8 2 49 21 90 42 88 45 148 104 186 185 23 48 27 70 27 147 0 99 -2 112 -32
179 -43 93 -158 172 -295 203 -34 7 -70 15 -81 18 -18 4 -71 15 -145 29 -74
15 -168 40 -190 51 -86 44 -113 135 -69 226 16 33 99 111 99 94 0 -4 6 -3 13
3 28 23 154 35 221 20 128 -29 225 -124 235 -231 1 -5 5 -5 11 -2 12 8 42 14
100 21 24 3 48 8 52 10 4 3 18 7 29 9 12 3 24 7 27 10 8 7 -30 125 -40 125 -4
0 -8 7 -8 15 0 8 -4 15 -10 15 -5 0 -10 5 -10 11 0 9 -76 87 -112 116 -41 31
-142 73 -213 89 -33 7 -196 12 -235 7z"/>
<path d="M6940 6162 c0 -4 -52 -6 -115 -6 l-115 2 -1 -57 c-2 -284 1 -1304 5
-1308 6 -7 207 -6 213 1 3 3 5 111 5 241 l0 235 247 1 c135 1 249 1 252 1 3
-1 27 5 52 13 26 8 47 12 47 10 0 -16 151 77 191 118 41 42 99 136 105 172 1
5 5 24 8 40 42 228 -78 431 -299 505 -63 22 -63 22 -202 25 -72 1 -136 6 -142
9 -6 4 -11 4 -11 -1 0 -9 -200 -9 -224 0 -9 4 -16 3 -16 -1z m148 -212 c2 0 1
4 -2 8 -3 4 10 6 27 4 30 -3 130 -3 152 0 6 1 23 -2 39 -6 15 -4 25 -3 22 2
-10 16 118 -10 164 -33 53 -27 70 -45 100 -102 64 -125 7 -275 -125 -328 -57
-23 -70 -24 -296 -25 l-237 -1 0 245 0 245 34 -3 c19 -1 39 1 45 5 7 4 26 3
43 -2 17 -5 32 -9 34 -9z"/>
<path d="M9835 6160 c-11 -4 -25 -5 -31 -3 -7 2 -15 -1 -19 -8 -5 -6 -8 -314
-8 -683 l0 -671 86 -5 c46 -3 97 -3 113 0 24 4 28 10 29 43 0 20 -3 37 -8 37
-6 0 -6 5 -1 13 5 6 9 110 8 230 -1 119 2 218 5 218 37 7 197 2 205 -7 6 -6
44 -48 85 -93 41 -45 90 -99 110 -120 20 -22 70 -76 111 -122 41 -45 89 -97
105 -115 17 -17 39 -44 51 -58 21 -26 23 -27 150 -27 71 0 135 0 143 1 9 0 3
11 -15 29 -25 24 -137 145 -228 246 -41 45 -198 214 -223 241 -13 13 -23 25
-23 26 0 2 15 5 33 6 64 4 184 44 225 75 42 32 122 118 122 132 0 8 5 15 12
15 6 0 8 3 5 7 -4 3 -3 11 3 18 17 20 37 128 34 180 -2 27 -11 72 -19 101 -15
53 -75 149 -106 172 -10 7 -24 18 -31 25 -36 34 -152 78 -242 91 -21 4 -42 9
-47 12 -5 3 -9 2 -9 -3 0 -10 -373 -9 -389 1 -6 4 -11 4 -11 -1 0 -9 -192 -11
-200 -2 -3 4 -14 3 -25 -1z m269 -203 c21 1 41 4 43 7 3 2 18 0 34 -4 16 -5
29 -5 29 0 0 4 12 5 28 1 15 -4 39 -5 53 0 15 4 32 3 40 -1 7 -5 21 -4 31 1
11 6 18 6 18 0 0 -5 14 -6 34 -1 19 4 37 5 40 3 3 -3 19 -7 35 -8 112 -9 201
-101 201 -207 0 -98 -59 -172 -162 -202 -57 -17 -515 -19 -521 -2 -2 6 -4 37
-3 69 1 31 -2 57 -7 57 -4 0 -5 5 -1 12 10 16 11 148 1 148 -5 0 -5 6 0 13 4
6 6 34 5 61 -3 54 8 69 42 57 12 -4 38 -6 60 -4z"/>
<path d="M11147 6164 c-3 -3 -33 -6 -66 -6 -67 -1 -62 7 -61 -88 1 -24 3 -46
5 -48 2 -2 -1 -17 -5 -33 -9 -32 -18 -29 95 -29 33 0 65 1 70 2 6 1 23 -2 39
-6 15 -4 25 -3 22 2 -2 4 10 6 27 5 55 -7 123 -7 139 0 9 3 19 3 23 -1 3 -3
22 -5 41 -3 l34 3 0 -586 c0 -514 2 -586 15 -587 8 0 47 0 85 0 39 0 82 0 98
0 l27 1 -1 573 c0 314 2 578 4 585 2 7 18 12 36 12 17 0 38 1 46 2 9 1 28 -2
44 -6 15 -4 25 -3 22 2 -2 4 10 6 27 4 30 -3 130 -3 152 0 6 1 23 -2 39 -6 15
-4 25 -3 23 1 -7 12 57 10 65 -2 5 -6 8 -5 8 2 0 7 7 10 15 6 14 -5 15 8 13
93 l-3 99 -111 1 c-62 1 -117 5 -123 8 -6 4 -11 4 -11 -1 0 -9 -200 -9 -224 0
-9 4 -16 3 -16 -1 0 -9 -374 -7 -389 2 -6 4 -11 4 -11 -1 0 -9 -162 -9 -177 0
-6 4 -13 4 -16 1z"/>
</g>
</svg>
