<svg xmlns="http://www.w3.org/2000/svg" width="32" height="32" viewBox="0 0 32 32">
  <g id="Search_icon" data-name="Search icon" transform="translate(0 1)">
    <path id="Path_17604" data-name="Path 17604" d="M3.8,22.16A12.985,12.985,0,0,1,22.16,3.8a12.732,12.732,0,0,1,1.953,15.671.546.546,0,0,0,.075.651l6.625,6.625c1.319,1.318,1.632,3.162.463,4.332l-.2.2c-1.169,1.17-3.013.856-4.332-.463L20.133,24.2a.554.554,0,0,0-.665-.089A12.732,12.732,0,0,1,3.8,22.16Zm15.966-2.4a9.594,9.594,0,1,0-13.568,0A9.6,9.6,0,0,0,19.763,19.762Z" transform="translate(-0.001 -1)" fill="#fff"/>
    <g id="Group_18216" data-name="Group 18216" transform="translate(8.778 5.47)">
      <path id="Path_17605" data-name="Path 17605" d="M124.72,57.635a1.382,1.382,0,0,0,1.271-1.92A8.7,8.7,0,0,0,114.6,51.1a1.381,1.381,0,1,0,1.077,2.544,5.939,5.939,0,0,1,7.775,3.152A1.382,1.382,0,0,0,124.72,57.635Z" transform="translate(-113.752 -50.409)" fill="#fff"/>
    </g>
  </g>
</svg>
