<svg xmlns="http://www.w3.org/2000/svg" width="40.184" height="36.97" viewBox="0 0 40.184 36.97">
  <g id="Component_60_1" data-name="Component 60 – 1" transform="translate(0.494 0.709)">
    <path id="Path_47015" data-name="Path 47015" d="M673.041,40.11c-.916,2.921-4.131,4.731-7.673,4.535l-1.2-1.672c-.472.49-1.312.952-1.351,1.475a46.768,46.768,0,0,0,.034,5.636c.061,1.334.324,2.66.38,3.994a4.754,4.754,0,0,1-2.447,4.771c-.428.24-.6.946-.883,1.437.6.019,1.376.282,1.781.006a8.484,8.484,0,0,0,2.362-2.275c3.1-4.784,7.844-5.747,12.466-2.5.42.3,1.132.176,1.708.249a15.052,15.052,0,0,0-.552-1.53c-.11-.23-.393-.378-.582-.549,1.392-4.28,7.145-6.053,9.779-5.254A4.423,4.423,0,0,1,690,52.544q.148,5.266.009,10.539a4.555,4.555,0,0,1-3.611,4.468c-11.542,3.485-22.742,2.844-33.558-2.731-1.614-.832-2.07-1.863-1.932-3.738a39.393,39.393,0,0,1,8.6-21.722,19.5,19.5,0,0,1,4.848-4.5,6.35,6.35,0,0,1,8.084,1.3,1.592,1.592,0,0,1,.016,1.53,14.905,14.905,0,0,1-2.466,2.485c-.333.269-.974.157-1.475.219a9.054,9.054,0,0,1,.128-1.611c.072-.288.524-.478.605-.768a1.251,1.251,0,0,0-.114-1.039c-.2-.193-.9-.242-1.015-.086-.635.865-1.551,1.792-1.6,2.737a3.684,3.684,0,0,0,1.515,2.483c.983.761,2.159.348,3.034-.489a21.41,21.41,0,0,0,1.6-1.912Z" transform="translate(-650.885 -33.937)" fill="none" stroke="#fff" stroke-width="1"/>
  </g>
</svg>
