<svg xmlns="http://www.w3.org/2000/svg" width="47.533" height="35.847" viewBox="0 0 47.533 35.847">
  <g id="rVcfjX" transform="translate(0.6 0.479)">
    <g id="Group_37707" data-name="Group 37707">
      <path id="Path_47016" data-name="Path 47016" d="M816.332,412.6c1.939-1.185,2.33-2.322,1.527-4.234a10.168,10.168,0,0,0-.848-1.607,2.483,2.483,0,0,1-.119-2.9,4.618,4.618,0,0,0,.474-1.6c.461-2.7,1.94-3.126,4.605-2.867a2.82,2.82,0,0,1,2.79,2.6c.112.849.578,1.665.608,2.506a8.162,8.162,0,0,1-.473,2.467,19.489,19.489,0,0,0-1.015,3.147,1.881,1.881,0,0,0,2.881,1.949,6.62,6.62,0,0,1,4.031-.592,10.6,10.6,0,0,0,2.356-.247c1.095-.091,2.193-.139,3.571-.223a16.214,16.214,0,0,0-.217-2.216,5.174,5.174,0,0,0-.746-1.5c-1.081-1.76-1.09-1.755-3.066-1.189-2.242.642-2.814.122-2.524-2.239a1.607,1.607,0,0,1,1.393-1.593,4.735,4.735,0,0,1,4.385.994c2.894,2.6,5.968,5.029,8.023,8.454a1.364,1.364,0,0,1-.051,1.81,10.816,10.816,0,0,1-9.313,4.778c-.3,0-.6-.009-.907-.011-.042,0-.085.018-.029.005-1.546,3.03-3.171,5.955-4.526,9a14.173,14.173,0,0,0-.768,4.191,1.464,1.464,0,0,1-1,1.443,16.5,16.5,0,0,1-12.538.071,1.594,1.594,0,0,1-.841-1.077,15.973,15.973,0,0,0-2.091-6.6c-1.33-2.177-2.285-4.583-3.448-6.978a1.014,1.014,0,0,0-.383-.044c-4.366.818-7.106-2.058-10.043-4.452a1,1,0,0,1-.148-.96,35.317,35.317,0,0,1,3.2-4.649c1.584-1.769,3.427-3.308,5.175-4.928a4.092,4.092,0,0,1,5.25-.519c1.083.671.638,1.612.432,2.544a1.129,1.129,0,0,1-1.575.99,3.476,3.476,0,0,0-.384-.063c-.837-.1-1.969-.586-2.459-.218a6.007,6.007,0,0,0-2.572,5.336,4.958,4.958,0,0,1,4.554.289c.322.211.994-.059,1.49-.173C812.935,411.039,814.787,411,816.332,412.6Z" transform="translate(-797.82 -399.321)" fill="none" stroke="#fff" stroke-width="1"/>
    </g>
  </g>
</svg>
