<svg xmlns="http://www.w3.org/2000/svg" width="39.211" height="35.266" viewBox="0 0 39.211 35.266">
  <g id="Component_59_1" data-name="Component 59 – 1" transform="translate(0.5)">
    <g id="_3akDAM" data-name="3akDAM" transform="translate(0 8.096)">
      <g id="Group_37704" data-name="Group 37704" transform="translate(0 0)">
        <path id="Path_47008" data-name="Path 47008" d="M903.221,790.052c.465,5.563,3.417,8.953,8.993,10.091v16.483H906c-.9,0-1.793.012-2.69,0a4.06,4.06,0,0,1-4.241-3.873c-.345-4.469-.6-8.946-.881-13.42-.1-1.586-.225-3.172-.281-4.76C897.791,791.426,900.04,789.519,903.221,790.052Z" transform="translate(-897.899 -789.96)" fill="none" stroke="#fff" stroke-width="1"/>
        <path id="Path_47009" data-name="Path 47009" d="M1007.827,833.483a7.816,7.816,0,1,1-7.74-7.822A7.787,7.787,0,0,1,1007.827,833.483Zm-7.734-1.607c-1.588,0-3.178.039-4.765-.013-1.215-.04-1.257.688-1.255,1.59s.032,1.609,1.251,1.592q4.7-.066,9.408,0c1.2.016,1.283-.685,1.279-1.588s-.066-1.633-1.275-1.593C1003.189,831.913,1001.641,831.874,1000.093,831.875Z" transform="translate(-969.117 -816.92)" fill="#fff"/>
        <path id="Path_47010" data-name="Path 47010" d="M976.085,816.424H965.22c-.019-.291-.061-.648-.061-1,0-4.727.015-9.455-.017-14.182-.006-.814.156-1.177,1.056-1.371,4.674-1,7.366-4.346,8.026-9.792a4.331,4.331,0,0,1,5.257,5.4.973.973,0,0,1-.649.53q-8.006,1.653-9.2,8.936a10.493,10.493,0,0,0,6.026,10.995C975.725,815.969,975.764,816.054,976.085,816.424Z" transform="translate(-948.685 -789.947)" fill="#fff"/>
      </g>
    </g>
    <circle id="Ellipse_93" data-name="Ellipse 93" cx="0.807" cy="0.807" r="0.807" transform="translate(13.181 14.052)" fill="#fff"/>
    <circle id="Ellipse_94" data-name="Ellipse 94" cx="1.26" cy="1.26" r="1.26" transform="translate(16.069 13.455)" fill="#fff"/>
    <circle id="Ellipse_95" data-name="Ellipse 95" cx="1.624" cy="1.624" r="1.624" transform="translate(19.154 10.804)" fill="#fff"/>
    <path id="Path_47012" data-name="Path 47012" d="M938.793,757.318a8.1,8.1,0,0,0-10.293,4.8,16.409,16.409,0,0,0-.483,4.308h.014a.4.4,0,0,0,.805-.006.4.4,0,0,0-.018-.114,3.772,3.772,0,0,0-.053-.426,6.82,6.82,0,0,1,5.882-7.344,6.338,6.338,0,0,1,7.172,5.306,20.236,20.236,0,0,1,.022,3.019l2.12.622A8.169,8.169,0,0,0,938.793,757.318Z" transform="translate(-920.645 -756.869)" fill="#fff"/>
    <path id="Path_47013" data-name="Path 47013" d="M958.721,780.971a3.278,3.278,0,0,0-1.082.111,22.3,22.3,0,0,1-2.4,1.23,1.728,1.728,0,1,0,1.178,1.869c.638-.691,1.257-1.4,1.849-2.132A4.142,4.142,0,0,0,958.721,780.971Z" transform="translate(-939.499 -775.072)" fill="#fff"/>
  </g>
</svg>
