<svg id="Twist_logo" data-name="Twist logo" xmlns="http://www.w3.org/2000/svg" xmlns:xlink="http://www.w3.org/1999/xlink" width="128.429" height="62" viewBox="0 0 128.429 62">
  <defs>
    <clipPath id="clip-path">
      <rect id="Rectangle_2176" data-name="Rectangle 2176" width="128.429" height="62" fill="#fff"/>
    </clipPath>
  </defs>
  <rect id="Rectangle_2175" data-name="Rectangle 2175" width="7.322" height="26.845" transform="translate(70.92 13.475)" fill="#fff"/>
  <g id="Group_20222" data-name="Group 20222" clip-path="url(#clip-path)">
    <path id="Path_17613" data-name="Path 17613" d="M327.474,51.874a12.534,12.534,0,0,1,9.647,3.982l-3.685,4.407A9.36,9.36,0,0,0,330.59,58.4a8.245,8.245,0,0,0-3.17-.637,4.182,4.182,0,0,0-2.087.451,1.509,1.509,0,0,0-.786,1.407,1.486,1.486,0,0,0,.677,1.275,10.986,10.986,0,0,0,2.141,1.062l2.6,1.062a18.568,18.568,0,0,1,5.582,3.186,6.163,6.163,0,0,1,1.951,4.832,7.5,7.5,0,0,1-3.035,6.212,10.186,10.186,0,0,1-3.333,1.619,15.578,15.578,0,0,1-10.541-.823,12.643,12.643,0,0,1-4.661-3.717l3.685-4.354a14.741,14.741,0,0,0,3.523,2.6,8.577,8.577,0,0,0,4.01.956,5.089,5.089,0,0,0,2.412-.531,1.746,1.746,0,0,0,1-1.646,1.537,1.537,0,0,0-.759-1.381,14.643,14.643,0,0,0-2.005-1.009L324.926,67.8a27.6,27.6,0,0,1-3.089-1.434,9.407,9.407,0,0,1-2.276-1.7,7.142,7.142,0,0,1-1.437-2.151,6.844,6.844,0,0,1-.515-2.734,7.433,7.433,0,0,1,.732-3.372,7.011,7.011,0,0,1,2.059-2.469,9.6,9.6,0,0,1,3.143-1.54,13.97,13.97,0,0,1,3.929-.531" transform="translate(-234.781 -38.82)" fill="#fff"/>
    <path id="Path_17614" data-name="Path 17614" d="M276.825,0A4.676,4.676,0,0,1,280.1,1.274a4.155,4.155,0,0,1,1.382,3.186A4.1,4.1,0,0,1,280.1,7.593a4.676,4.676,0,0,1-3.279,1.274,4.743,4.743,0,0,1-3.333-1.274A4.094,4.094,0,0,1,272.11,4.46a4.154,4.154,0,0,1,1.382-3.186A4.744,4.744,0,0,1,276.825,0" transform="translate(-202.217)" fill="#fff"/>
    <path id="Path_17615" data-name="Path 17615" d="M405.993,54.405v6.053h8.416V80.687h7.315V60.459h8.416V54.405Z" transform="translate(-301.711 -40.715)" fill="#fff"/>
    <path id="Path_17616" data-name="Path 17616" d="M61.188,54.406c-.669,4.072-3.05,18.577-3.593,21.869l-.087.528-.005.033,0,.012-.007.025a2.1,2.1,0,0,1-3.4,1.176,2.015,2.015,0,0,1-.72-1.443l-.171-4.247c-.018-.354-.045-1.258-.064-1.6a6.538,6.538,0,0,0-5.64-6.476A6.625,6.625,0,0,0,40.138,69.1c-.09.329-.331,1.208-.424,1.548-.563,2.059-1.7,6.2-2.26,8.258-.089.328-.34,1.237-.424,1.548a2.04,2.04,0,0,1-4.015-.37l0-.067-.023-.534c-.169-3.63-.462-10.8-.646-14.461A11.382,11.382,0,0,0,22.952,54.6l-.757-.11c-.434-.064-.892-.052-1.332-.081-.677,0-20.864,0-20.864,0v6.053s6.944-.047,8.415-.047V80.687h7.317V60.432c1.82.007,3.542.013,5,.012a5.849,5.849,0,0,1,2.124.386A5.154,5.154,0,0,1,26.091,65.6c.111,3.982.195,10.936.376,14.861a8.531,8.531,0,0,0,8.516,8,8.664,8.664,0,0,0,8.576-6.851c.7-2.54,1.847-6.742,2.554-9.288.09-.319.272-1,.391-1.422.009.217.02.482.025.637.024.717.182,4.554.209,5.364a8.382,8.382,0,0,0,.867,3.34c3.724,7.315,14.634,5.977,16.4-2,.114-.535.249-1.442.343-1.987,1-5.726,2.341-14.422,3.527-21.852Zm-14.7,16.268s0,0,0,0v0a.034.034,0,0,1,0-.006" transform="translate(0 -40.715)" fill="#fff"/>
    <path id="Path_17617" data-name="Path 17617" d="M150.2,207.532a3.14,3.14,0,0,1,1.274,1.969l-1.558.314a1.884,1.884,0,0,0-.743-1.22,2.387,2.387,0,0,0-1.486-.464,2.2,2.2,0,0,0-1.383.407,1.269,1.269,0,0,0-.525,1.049,1.034,1.034,0,0,0,.3.785,1.881,1.881,0,0,0,.939.414l2.112.442q2.5.542,2.5,2.611a2.554,2.554,0,0,1-1.027,2.133,4.328,4.328,0,0,1-2.716.792,4.819,4.819,0,0,1-2.738-.749,2.848,2.848,0,0,1-1.3-2.091l1.66-.342a2.054,2.054,0,0,0,.845,1.363,2.872,2.872,0,0,0,1.675.464,2.477,2.477,0,0,0,1.508-.407,1.279,1.279,0,0,0,.546-1.077,1.064,1.064,0,0,0-.313-.827,2.289,2.289,0,0,0-1.056-.442l-2.126-.428q-2.462-.556-2.461-2.6a2.484,2.484,0,0,1,.983-2.048,4.072,4.072,0,0,1,2.6-.778,4.142,4.142,0,0,1,2.483.728" transform="translate(-106.906 -154.764)" fill="#62d66e"/>
    <path id="Path_17618" data-name="Path 17618" d="M186.53,207.6a3.7,3.7,0,0,1,2.556.849,2.845,2.845,0,0,1,.954,2.233,2.884,2.884,0,0,1-.954,2.254,3.684,3.684,0,0,1-2.556.856h-2.84v3.367h-1.558V207.6Zm0,4.794a2.078,2.078,0,0,0,1.427-.464,1.723,1.723,0,0,0,0-2.476,2.059,2.059,0,0,0-1.427-.471h-2.84v3.41Z" transform="translate(-135.35 -155.359)" fill="#62d66e"/>
    <path id="Path_17619" data-name="Path 17619" d="M226.956,208.26a4.957,4.957,0,0,1,0,7.063,5.256,5.256,0,0,1-7.231,0,4.982,4.982,0,0,1,0-7.07,5.227,5.227,0,0,1,7.231.007m-1.114,6.05a3.4,3.4,0,0,0,1.019-2.511,3.44,3.44,0,0,0-1.019-2.533,3.577,3.577,0,0,0-5,0,3.453,3.453,0,0,0-1.012,2.533,3.537,3.537,0,0,0,6.015,2.511" transform="translate(-162.194 -154.764)" fill="#62d66e"/>
    <path id="Path_17620" data-name="Path 17620" d="M272.057,217.158l-3.481-3.81h-1.413v3.81h-1.558V207.6h4.588a3.6,3.6,0,0,1,2.425.792,2.821,2.821,0,0,1,.087,4.095,3.422,3.422,0,0,1-2.235.849l3.525,3.824Zm-1.864-5.194a1.976,1.976,0,0,0,1.3-.407,1.324,1.324,0,0,0,.5-1.077,1.345,1.345,0,0,0-.5-1.085,1.953,1.953,0,0,0-1.3-.414h-3.029v2.982Z" transform="translate(-197.382 -155.358)" fill="#62d66e"/>
    <path id="Path_17621" data-name="Path 17621" d="M304.341,208.983v8.176h-1.573v-8.176h-3.423V207.6h8.433v1.384Z" transform="translate(-222.456 -155.358)" fill="#62d66e"/>
    <path id="Path_17622" data-name="Path 17622" d="M341.981,207.532a3.142,3.142,0,0,1,1.274,1.969l-1.558.314a1.882,1.882,0,0,0-.743-1.22,2.387,2.387,0,0,0-1.486-.464,2.2,2.2,0,0,0-1.383.407,1.269,1.269,0,0,0-.525,1.049,1.034,1.034,0,0,0,.3.785,1.88,1.88,0,0,0,.939.414l2.112.442q2.5.542,2.5,2.611a2.554,2.554,0,0,1-1.027,2.133,4.328,4.328,0,0,1-2.716.792,4.818,4.818,0,0,1-2.738-.749,2.849,2.849,0,0,1-1.3-2.091l1.66-.342a2.055,2.055,0,0,0,.845,1.363,2.872,2.872,0,0,0,1.675.464,2.475,2.475,0,0,0,1.507-.407,1.279,1.279,0,0,0,.546-1.077,1.062,1.062,0,0,0-.313-.827,2.287,2.287,0,0,0-1.056-.442l-2.126-.428q-2.462-.556-2.461-2.6a2.484,2.484,0,0,1,.983-2.048,4.071,4.071,0,0,1,2.6-.778,4.142,4.142,0,0,1,2.483.728" transform="translate(-249.427 -154.764)" fill="#62d66e"/>
  </g>
</svg>
