<svg width="32" height="33" viewBox="0 0 32 33" fill="none" xmlns="http://www.w3.org/2000/svg">
<g id="Whistle">
<path id="Vector" d="M26.6454 2.62351C26.3683 2.63177 26.1053 2.74759 25.9121 2.94643L21.6454 7.21309C21.543 7.31138 21.4613 7.42911 21.405 7.55938C21.3487 7.68965 21.319 7.82984 21.3175 7.97176C21.3161 8.11367 21.343 8.25444 21.3966 8.38583C21.4502 8.51721 21.5296 8.63658 21.6299 8.73693C21.7303 8.83728 21.8496 8.9166 21.981 8.97024C22.1124 9.02388 22.2532 9.05077 22.3951 9.04933C22.537 9.04788 22.6772 9.01814 22.8075 8.96183C22.9377 8.90553 23.0555 8.8238 23.1537 8.72143L27.4204 4.45476C27.5746 4.30493 27.6798 4.11204 27.7225 3.90135C27.7651 3.69066 27.7431 3.47201 27.6593 3.27405C27.5755 3.0761 27.4339 2.90806 27.253 2.79198C27.072 2.6759 26.8603 2.61717 26.6454 2.62351ZM19.2121 3.68601C18.9842 3.68424 18.7617 3.75549 18.5773 3.88933C18.3928 4.02317 18.2561 4.21256 18.1871 4.42976L17.1204 7.62976C17.0309 7.89829 17.0517 8.19138 17.1783 8.44456C17.3049 8.69773 17.5269 8.89025 17.7954 8.97976C18.0639 9.06927 18.357 9.04844 18.6102 8.92185C18.8634 8.79527 19.0559 8.57329 19.1454 8.30476L20.2121 5.10476C20.2681 4.94452 20.2851 4.77323 20.2616 4.60511C20.2381 4.437 20.1748 4.27692 20.077 4.13817C19.9792 3.99943 19.8497 3.88602 19.6993 3.80738C19.5488 3.72874 19.3818 3.68713 19.2121 3.68601ZM3.18291 11.1527C2.90038 11.1571 2.63114 11.2734 2.43429 11.4761C2.23743 11.6789 2.12904 11.9514 2.13291 12.2339V17.5673C2.13048 17.8294 2.22464 18.0832 2.39741 18.2803C2.57018 18.4774 2.80948 18.604 3.06965 18.636C3.32981 18.6679 3.59263 18.603 3.80795 18.4535C4.02328 18.304 4.17603 18.0805 4.23708 17.8256L11.7329 19.7006C11.7329 24.4131 15.5537 28.2339 20.2662 28.2339C24.6573 28.2339 28.2627 24.9152 28.7371 20.6506C28.9264 20.7272 29.1287 20.7668 29.3329 20.7673C29.7573 20.7673 30.1642 20.5987 30.4643 20.2986C30.7643 19.9986 30.9329 19.5916 30.9329 19.1673C30.9329 18.7429 30.7643 18.3359 30.4643 18.0359C30.1642 17.7358 29.7573 17.5673 29.3329 17.5673C29.0648 17.568 28.8012 17.636 28.5662 17.7652C27.6502 13.9269 24.0491 11.1673 19.9746 11.1673H17.0662V14.3673C17.0662 14.9561 16.5884 15.4339 15.9996 15.4339C15.4108 15.4339 14.9329 14.9561 14.9329 14.3673V11.1673H3.36416C3.30427 11.1572 3.24363 11.1524 3.18291 11.1527Z" fill="white"/>
</g>
</svg>
