<svg width="28" height="28" viewBox="0 0 28 28" fill="none" xmlns="http://www.w3.org/2000/svg">
<g id="Whistle" clip-path="url(#clip0_33_19562)">
<path id="Vector" d="M21.7717 0.560032C21.647 0.573157 21.5289 0.630032 21.4392 0.717532L16.3992 5.75753C16.1761 5.98066 16.1761 6.33941 16.3992 6.56253C16.6223 6.78566 16.9811 6.78566 17.2042 6.56253L22.2442 1.52253C22.4258 1.35409 22.4739 1.08722 22.3645 0.866282C22.2573 0.643157 22.0145 0.520657 21.7717 0.560032ZM15.6292 2.22253C15.6052 2.22691 15.5811 2.23347 15.5592 2.24003C15.3755 2.28159 15.2223 2.41284 15.1567 2.59003L14.0367 5.39003C13.9208 5.68097 14.0608 6.00909 14.3517 6.12503C14.6427 6.24097 14.9708 6.10097 15.0867 5.81003L16.2067 3.01003C16.2898 2.82628 16.268 2.60972 16.1477 2.44784C16.0295 2.28378 15.8305 2.19847 15.6292 2.22253ZM1.68172 8.40003C0.760781 8.40003 0.00171875 9.15909 0.00171875 10.08L-0.0507812 14.49C-0.0507812 14.4966 -0.0507812 14.501 -0.0507812 14.5075C-0.0507812 15.3278 0.522344 16.0563 1.34922 16.2225C1.36016 16.2291 1.37328 16.2357 1.38422 16.24C2.00547 16.3188 2.65953 16.0935 3.02922 15.5575C3.03359 15.551 3.04234 15.5466 3.04672 15.54C3.25016 15.2622 3.45797 15.12 3.74672 15.12C4.20391 15.12 4.61078 15.1747 5.07672 15.2775C5.08328 15.2797 5.08766 15.2753 5.09422 15.2775L5.74172 15.435C5.74828 15.435 5.75266 15.435 5.75922 15.435C7.99266 15.9557 9.88484 17.5285 10.9917 19.5825C12.3217 21.9997 14.9248 23.6403 17.9392 23.52C21.3605 23.4128 24.2895 20.8775 25.0267 17.6225C25.3264 17.8085 25.6655 17.92 26.0417 17.92C27.118 17.92 28.0017 17.0363 28.0017 15.96C28.0017 14.8838 27.118 14 26.0417 14C25.6611 14 25.3111 14.1072 25.0092 14.2975C24.2545 10.9375 21.2511 8.40003 17.6417 8.40003H14.5617C14.3605 8.39784 14.1723 8.50503 14.0717 8.68003L12.8817 10.7625V8.96003C12.8817 8.65159 12.6302 8.40003 12.3217 8.40003H1.68172ZM1.68172 9.52003H11.7617V12.88C11.7573 13.136 11.9302 13.3635 12.1773 13.4291C12.4267 13.4969 12.687 13.3853 12.8117 13.16L14.8942 9.52003H17.6417C21.2183 9.52003 24.0905 12.4141 24.0817 15.96C24.0817 16.0475 24.0861 16.135 24.0817 16.2225C23.9789 19.5016 21.1833 22.2972 17.9042 22.4C15.3186 22.5028 13.107 21.1203 11.9717 19.0575C10.7292 16.7497 8.59641 14.9538 6.02172 14.35H6.00422L5.33922 14.1925C5.33922 14.186 5.33922 14.1816 5.33922 14.175C4.80547 14.0569 4.29141 14 3.74672 14C3.61328 14 3.48422 14.0088 3.36172 14.035V11.76C3.36609 11.5872 3.28953 11.4232 3.15609 11.3138C3.02484 11.2044 2.84766 11.1628 2.67922 11.2C2.41891 11.2591 2.23516 11.4932 2.24172 11.76V14.77C2.20234 14.8182 2.15422 14.8597 2.11922 14.91C2.11922 14.9166 2.11922 14.921 2.11922 14.9275C2.03828 15.0478 1.78891 15.1528 1.52422 15.12C1.25297 15.0457 1.06922 14.7919 1.06922 14.5075L1.12172 10.08C1.12172 9.76941 1.37109 9.52003 1.68172 9.52003ZM26.0417 15.12C26.512 15.12 26.8817 15.4897 26.8817 15.96C26.8817 16.4303 26.512 16.8 26.0417 16.8C25.5714 16.8 25.2017 16.4303 25.2017 15.96C25.2017 15.4897 25.5714 15.12 26.0417 15.12Z" fill="white"/>
</g>
<defs>
<clipPath id="clip0_33_19562">
<rect width="28" height="28" fill="white"/>
</clipPath>
</defs>
</svg>
