<svg width="48" height="49" viewBox="0 0 48 49" fill="none" xmlns="http://www.w3.org/2000/svg">
<g id="Foul">
<path id="Vector" d="M29 28.5C29 30.156 27.657 31.5 26 31.5H13C11.343 31.5 10 30.156 10 28.5V8.5C10 6.844 11.343 5.5 13 5.5H26C27.657 5.5 29 6.844 29 8.5V28.5Z" fill="#FCBF00"/>
<path id="Vector_2" d="M37.8462 31.8235L34.0512 23.1735C33.5802 21.8595 32.8932 20.7285 31.6062 20.2105C31.1102 20.0255 30.2022 19.6345 29.0022 19.1895V28.4995C29.0022 30.1555 27.6592 31.4995 26.0022 31.4995H20.9992L19.0022 22.5205C18.6892 20.8665 17.9082 19.2745 15.3142 19.5245C14.3442 19.6235 12.7192 20.5535 13.0942 22.9595L15.0022 35.5075C16.0022 41.4995 20.3452 43.4995 22.0022 43.4995H33.0022L37.5882 33.8825C38.0202 33.3125 38.1132 32.4215 37.8462 31.8235Z" fill="white"/>
<path id="Vector_3" d="M30.9972 31.4995L29.9972 26.4995C29.8362 25.7915 29.5062 25.1695 28.9972 24.8145V28.4995C28.9972 30.1555 27.6542 31.4995 25.9972 31.4995H20.9922L21.2162 32.4995C21.8722 34.9995 23.7792 34.4485 23.7792 34.4485L28.9972 33.4995C30.3412 33.2495 31.1852 32.6245 30.9972 31.4995Z" fill="white"/>
<path id="Vector_4" d="M17.9368 22.2095C18.0948 23.3035 14.1348 23.8725 13.9778 22.7805C13.8198 21.6865 14.5798 20.6735 15.6718 20.5145C16.7668 20.3585 17.7798 21.1165 17.9368 22.2095Z" fill="#FFCDD2"/>
</g>
</svg>
