<svg xmlns="http://www.w3.org/2000/svg" xmlns:xlink="http://www.w3.org/1999/xlink" width="289.04" height="289.04" viewBox="0 0 289.04 289.04">
  <defs>
    <clipPath id="clip-path">
      <rect id="Rectangle_2992" data-name="Rectangle 2992" width="236" height="236" fill="#0d0d0d"/>
    </clipPath>
  </defs>
  <g id="TENNIS" transform="matrix(0.966, 0.259, -0.259, 0.966, 61.513, 0.116)">
    <g id="Group_42084" data-name="Group 42084" transform="translate(-0.447)" clip-path="url(#clip-path)">
      <path id="Path_71162" data-name="Path 71162" d="M77.368,97.788,70.681,91.1l1.114-1.18A3.016,3.016,0,0,1,73.861,89a2.949,2.949,0,0,1,2.1.852l2.655,2.655a2.874,2.874,0,0,1,.852,2.065v.033a2.757,2.757,0,0,1-.918,2.065Zm9.047-86.7c-.229.164-.459.361-.688.524A6.91,6.91,0,0,1,81.4,13.221a9.952,9.952,0,0,1-2.131-.262,6.571,6.571,0,0,1-2.917-1.737A8.348,8.348,0,0,0,92.544,8.96C89.922,8.37,88.218,9.681,86.415,11.091ZM73.894,79.432a2.874,2.874,0,0,0,2.065-.852l2.655-2.655a2.949,2.949,0,0,0,.852-2.1,2.757,2.757,0,0,0-.918-2.065l-1.18-1.114-6.687,6.687,1.114,1.18a3.016,3.016,0,0,0,2.065.918Zm20.748,0a2.757,2.757,0,0,0,2.065-.918l1.114-1.18-6.687-6.687-1.18,1.114a3.016,3.016,0,0,0-.918,2.065v.033a2.873,2.873,0,0,0,.852,2.065l2.655,2.655A2.819,2.819,0,0,0,94.642,79.432ZM91.135,97.788,97.821,91.1l-1.114-1.18A3.016,3.016,0,0,0,94.642,89h-.033a2.874,2.874,0,0,0-2.065.852l-2.655,2.655a2.949,2.949,0,0,0-.852,2.1,2.757,2.757,0,0,0,.918,2.065Zm50.806-65.2L129.583,20.2a19.787,19.787,0,0,0-.918,2.393L140.3,34.232ZM79.63,11.451A5.483,5.483,0,0,0,84.809,10.4c.229-.164.426-.328.656-.492,1.77-1.377,3.933-3.048,7.08-2.491a8.345,8.345,0,0,0-16.159-1.8,4.08,4.08,0,0,0,.229,3.343A5.182,5.182,0,0,0,79.63,11.451ZM27.316,40.689a17.665,17.665,0,0,0,3.409-.1l3.606-3.573-1.672-1.672Zm-7.047-1.77a19.79,19.79,0,0,0,2.393.918L34.3,28.2l-1.672-1.672ZM155.15,19.383,143.088,7.321A17.363,17.363,0,0,0,140.859,8.4l12.619,12.619Zm2.1,56.968a8.348,8.348,0,0,0,2.262,16.192c.623-2.655-.721-4.392-2.131-6.195-.164-.229-.361-.459-.524-.688a6.91,6.91,0,0,1-1.606-4.327,9.951,9.951,0,0,1,.262-2.131A6.752,6.752,0,0,1,157.248,76.351Zm-6.523-43.758L132.992,14.86c-.524.623-1.016,1.246-1.442,1.868l17.5,17.5Zm-17.6,0L127.78,27.25a17.667,17.667,0,0,0,.1,3.409l3.606,3.606ZM155.15,28.2,137.581,10.632c-.59.459-1.213.983-1.8,1.508l17.733,17.733ZM16.795,36.92l17.5-17.5-1.672-1.672L14.894,35.477C15.549,35.969,16.172,36.461,16.795,36.92Zm151.63,47.3a8.344,8.344,0,0,0-5.572-7.867,4.08,4.08,0,0,0-3.343.229,5.353,5.353,0,0,0-1.442,8.194c.164.229.328.426.492.656,1.377,1.77,3.048,3.933,2.491,7.08A8.364,8.364,0,0,0,168.425,84.218ZM155.15,10.6l-4.392-4.392a12.93,12.93,0,0,0-3.311,0l6.064,6.064Zm-59,61.753-3.278-3.278L109.425,53.44c5.834-5.834,7.768-13.373,9.833-21.306a80.866,80.866,0,0,1,4.392-13.57,29.416,29.416,0,0,1,6.359-9.342C142.53-3.3,155.51-1.562,162.787,5.715s9.047,20.257-3.507,32.778a28.369,28.369,0,0,1-9.342,6.359,80.868,80.868,0,0,1-13.57,4.392c-7.965,2.065-15.471,4-21.306,9.833L99.428,75.63ZM125.42,28.528c.033,5.572,2.1,9.669,3.507,11.079s5.507,3.474,11.079,3.507a22,22,0,0,0,8.653-1.737,27.277,27.277,0,0,0,8-5.507c5.9-5.9,8.129-11.571,8.129-16.422a15.78,15.78,0,0,0-15.7-15.7c-4.851,0-10.522,2.229-16.422,8.129a28.373,28.373,0,0,0-5.507,8A21.427,21.427,0,0,0,125.42,28.528Zm-9.6,22.944.623.623.623.623c5.146-3.409,10.981-5.113,16.749-6.621a16.993,16.993,0,0,1-7.506-3.8h0a16.339,16.339,0,0,1-3.8-7.506C120.93,40.492,119.225,46.327,115.816,51.473Zm43.463,78.5c12.521,12.521,10.784,25.5,3.507,32.778s-20.257,9.047-32.778-3.507a28.369,28.369,0,0,1-6.359-9.342,80.865,80.865,0,0,1-4.392-13.57c-2.065-7.965-4-15.471-9.833-21.306L92.872,99.394l3.278-3.278,3.278-3.278,15.635,16.553c5.834,5.834,13.373,7.768,21.306,9.833a80.865,80.865,0,0,1,13.57,4.392A28.706,28.706,0,0,1,159.28,129.976Zm-33.04-3.737h0a16.989,16.989,0,0,1,7.539-3.835c-5.769-1.508-11.6-3.212-16.749-6.621l-.623.623-.623.623c3.409,5.146,5.113,10.981,6.621,16.749A16.626,16.626,0,0,1,126.24,126.239Zm38.481,22.781c0-4.851-2.229-10.522-8.129-16.422a28.374,28.374,0,0,0-8-5.507,21.528,21.528,0,0,0-8.653-1.737c-5.572.033-9.669,2.1-11.079,3.507s-3.474,5.507-3.507,11.079a22,22,0,0,0,1.737,8.653,27.277,27.277,0,0,0,5.507,8c5.9,5.9,11.571,8.129,16.422,8.129a15.78,15.78,0,0,0,15.7-15.7Zm-75.848,7.965a5.483,5.483,0,0,0-5.179,1.049c-.229.164-.426.328-.656.492-1.77,1.377-3.933,3.048-7.08,2.491a8.348,8.348,0,0,0,16.159,1.77,4.079,4.079,0,0,0-.229-3.343A5.234,5.234,0,0,0,88.873,156.985Zm52.313-29.238a17.667,17.667,0,0,0-3.409.1l-3.606,3.606,1.672,1.672Zm-59.1,29.6c.229-.164.459-.361.688-.524a6.91,6.91,0,0,1,4.327-1.606,9.953,9.953,0,0,1,2.131.262,6.572,6.572,0,0,1,2.917,1.737,8.348,8.348,0,0,0-16.192,2.262C78.581,160.066,80.285,158.755,82.088,157.345Zm66.146-27.828a19.787,19.787,0,0,0-2.393-.918L134.2,140.235l1.672,1.672ZM72.353,96.083l3.278,3.278L59.078,115.029c-5.834,5.834-7.768,13.373-9.833,21.306a80.866,80.866,0,0,1-4.392,13.57,29.416,29.416,0,0,1-6.359,9.342c-12.521,12.521-25.5,10.784-32.778,3.507S-3.331,142.5,9.223,129.976a28.369,28.369,0,0,1,9.342-6.359,80.868,80.868,0,0,1,13.57-4.392c7.965-2.065,15.471-4,21.306-9.833L69.075,92.838ZM43.083,139.907c-.033-5.572-2.1-9.669-3.507-11.079s-5.507-3.474-11.079-3.507a22,22,0,0,0-8.653,1.737,27.277,27.277,0,0,0-8,5.507c-5.9,5.9-8.129,11.571-8.129,16.422a15.78,15.78,0,0,0,15.7,15.7c4.851,0,10.522-2.229,16.422-8.129a28.373,28.373,0,0,0,5.507-8A21.427,21.427,0,0,0,43.083,139.907Zm9.6-22.944-.623-.623-.623-.623c-5.146,3.409-10.981,5.113-16.749,6.621a16.993,16.993,0,0,1,7.506,3.8h0a16.339,16.339,0,0,1,3.8,7.506C47.573,127.943,49.278,122.109,52.686,116.963Zm96.4,38.153,12.062-12.062a17.365,17.365,0,0,0-1.082-2.229l-12.619,12.619Zm2.622-23.6-17.5,17.5,1.672,1.672,17.733-17.733C152.954,132.467,152.331,131.975,151.708,131.516ZM138.6,153.445l1.672,1.672,17.569-17.569c-.459-.59-.983-1.213-1.508-1.8ZM35.38,135.843l5.343,5.343a17.665,17.665,0,0,0-.1-3.409l-3.573-3.606ZM10.633,13.32,6.208,17.745a12.929,12.929,0,0,0,0,3.311l6.064-6.064Zm147.238,141.8,4.392-4.392a12.929,12.929,0,0,0,0-3.311l-6.064,6.064ZM9.223,38.46C-3.3,25.939-1.561,12.959,5.716,5.682c7.309-7.309,20.289-9.047,32.811,3.474A28.369,28.369,0,0,1,44.885,18.5a80.867,80.867,0,0,1,4.392,13.57c2.065,7.965,4,15.471,9.833,21.306L75.664,69.009l-3.278,3.278-3.278,3.278L53.44,59.045c-5.834-5.834-13.373-7.768-21.306-9.833a80.867,80.867,0,0,1-13.57-4.392A28.706,28.706,0,0,1,9.223,38.46ZM42.263,42.2h0a16.989,16.989,0,0,1-7.539,3.835c5.769,1.508,11.6,3.212,16.749,6.621l.623-.623.623-.623C49.31,46.261,47.606,40.427,46.1,34.658A16.626,16.626,0,0,1,42.263,42.2ZM3.782,19.416c0,4.851,2.229,10.522,8.129,16.422a28.373,28.373,0,0,0,8,5.507,21.528,21.528,0,0,0,8.653,1.737c5.572-.033,9.669-2.1,11.079-3.507s3.474-5.507,3.507-11.079a22,22,0,0,0-1.737-8.653,27.277,27.277,0,0,0-5.507-8C30,5.945,24.334,3.716,19.483,3.716a15.78,15.78,0,0,0-15.7,15.7ZM26.563,135.843l12.39,12.39a19.794,19.794,0,0,0,.918-2.393L28.234,134.2ZM16.795,84.218a8.329,8.329,0,0,0-7.8-8.326c-.623,2.655.721,4.392,2.131,6.195.164.229.361.459.524.688A6.91,6.91,0,0,1,13.255,87.1a9.952,9.952,0,0,1-.262,2.131,6.571,6.571,0,0,1-1.737,2.917A8.464,8.464,0,0,0,16.795,84.218Zm2.622-70.9L7.388,25.382a17.362,17.362,0,0,0,1.082,2.229L21.089,14.991Zm10.489,1.672L28.234,13.32l-17.569,17.6c.459.59.983,1.213,1.508,1.8ZM.078,84.218A8.343,8.343,0,0,0,5.65,92.085a4.079,4.079,0,0,0,3.343-.229,5.352,5.352,0,0,0,1.442-8.194c-.164-.229-.328-.426-.492-.656-1.377-1.77-3.048-3.933-2.491-7.08A8.364,8.364,0,0,0,.078,84.218Zm13.275,56.017L30.922,157.8c.59-.459,1.213-.983,1.8-1.508L14.992,138.563Zm4.425-4.392,17.733,17.733c.524-.623,1.016-1.246,1.442-1.868l-17.5-17.5Zm-4.425,13.209,12.062,12.062a17.359,17.359,0,0,0,2.229-1.082L15.025,147.413Zm0,8.784,4.392,4.392a12.929,12.929,0,0,0,3.311,0l-6.064-6.064Z" transform="translate(34.367 33.782)" fill="#0d0d0d"/>
    </g>
  </g>
</svg>
