<svg xmlns="http://www.w3.org/2000/svg" xmlns:xlink="http://www.w3.org/1999/xlink" width="70.711" height="70.711" viewBox="0 0 70.711 70.711">
  <defs>
    <clipPath id="clip-path">
      <rect id="Rectangle_2962" data-name="Rectangle 2962" width="50" height="50" fill="#0d0d0d"/>
    </clipPath>
  </defs>
  <g id="BOXING" transform="translate(10.599 10.355)">
    <g id="Group_42054" data-name="Group 42054" transform="translate(24.757 -10.355) rotate(45)" clip-path="url(#clip-path)">
      <path id="Path_71126" data-name="Path 71126" d="M21.4,8.715c1.186-1.186,2.631-.356,3.74-1.521a.859.859,0,0,1,1.214.007l2.261,2.261a.868.868,0,0,1,0,1.221L26.6,12.7c-.014-.021-1.675-1.668-1.689-1.7a2.136,2.136,0,0,0-3.056,0,1.041,1.041,0,0,1-1.389.286c-.433-.328-.726-.935-.272-1.382C20.7,9.406,21.394,8.722,21.4,8.715Zm.788,2.728a1.45,1.45,0,0,1-2.31-.014,2.884,2.884,0,0,0-.258,4.263c1.4,1.647,3.238,2.917,5.17,1.165.977-1,2.791-2.275,1.4-3.761C25.141,12.127,23.689,9.894,22.189,11.443Zm5.554,14.611,8.122-8.122-6.894-6.894-.565.565,5.938,5.938H32.565L28.56,13.537l-.356.356,3.649,3.649H30.074L28.56,16.028l-.356.356,1.563,1.563L28.2,19.51l.356.356,1.514-1.514h1.779L28.2,21.98l.356.356,4.005-4.005h1.779l-7.166,7.159ZM29.132,9.273l2.442-2.442L28.95,4.277,26.536,6.685C26.543,6.692,29.125,9.273,29.132,9.273Zm-11.6-7.745V3.307L13.53,7.313l.356.356,3.649-3.649V5.791L16.021,7.306l.356.356L17.933,6.1,19.5,7.661l.356-.356L18.33,5.791V4.012L21.98,7.661l.356-.356L18.33,3.3V1.528l5.764,5.764a1.66,1.66,0,0,0,.691-.44h0L17.933,0,9.811,8.122l.565.565ZM3.307,3.866,32,32.558l.565-.565L3.866,3.307ZM13.676,24.422a1.45,1.45,0,0,1,2.31.014,2.884,2.884,0,0,0,.258-4.263c-1.4-1.647-3.238-2.917-5.17-1.165-.977,1-2.791,2.275-1.4,3.761C10.725,23.738,12.176,25.971,13.676,24.422Zm4.654,9.915V32.558l4.005-4.005L21.98,28.2,18.33,31.846V30.074l1.514-1.514-.356-.356-1.556,1.563L16.37,28.2l-.356.356,1.514,1.514v1.779L13.886,28.2l-.356.356,4.005,4.005v1.779l-5.764-5.764a1.66,1.66,0,0,0-.691.44h0l6.852,6.845,8.122-8.122-.565-.565ZM8.122,9.811,0,17.933l6.894,6.894.565-.565L1.521,18.323H3.3l4.005,4.005.356-.356L4.012,18.323H5.791l1.514,1.514.356-.356L6.1,17.933,7.661,16.37l-.356-.356L5.791,17.535H4.012l3.649-3.649-.356-.356-4,4.005H1.528l7.159-7.159ZM6.733,26.592,4.291,29.034l2.624,2.554,2.407-2.407C9.322,29.174,6.74,26.592,6.733,26.592Zm8.945-.642c.454-.44.16-1.054-.272-1.382a1.041,1.041,0,0,0-1.389.286,2.136,2.136,0,0,1-3.056,0c-.014-.021-1.675-1.668-1.689-1.7L7.257,25.175a.868.868,0,0,0,0,1.221l2.261,2.261a.859.859,0,0,0,1.214.007c1.109-1.165,2.554-.335,3.74-1.521C14.472,27.143,15.162,26.459,15.679,25.95Z" transform="translate(7.271 7.121)" fill="#0d0d0d"/>
    </g>
  </g>
</svg>
