<svg xmlns="http://www.w3.org/2000/svg" width="26" height="20" viewBox="0 0 26 20">
  <path id="stadium_1_" data-name="stadium (1)" d="M35.565,94.949a9.2,9.2,0,0,0-1.769-1.3,27.116,27.116,0,0,0-4.924-1.758l-.23-.044s-.831-.14-1.246-.194a24.513,24.513,0,0,0-6.993.093c-.213.034-.621.108-.641.112s-.186.034-.23.043a24.306,24.306,0,0,0-5.524,2.142,8.728,8.728,0,0,0-1.169.938,2.624,2.624,0,0,0-.23.231,4.47,4.47,0,0,0-1.393,3.238,5.029,5.029,0,0,0,1.777,3.532v2.125a4.484,4.484,0,0,1-.819-1.067,3.854,3.854,0,0,1-.234-.533,3.289,3.289,0,0,1-.116-.427c-.023-.119-.038-.213-.044-.276l-.011-.1-.006.1a2.6,2.6,0,0,0,0,.286,3.45,3.45,0,0,0,.211,1.07,4.535,4.535,0,0,0,.325.7,5.417,5.417,0,0,0,.507.732c.061.075.125.149.191.222v1.933a4.484,4.484,0,0,1-.819-1.066,3.854,3.854,0,0,1-.234-.533,3.286,3.286,0,0,1-.116-.427c-.023-.119-.038-.213-.044-.276l-.011-.1-.006.1a2.6,2.6,0,0,0,0,.286,3.448,3.448,0,0,0,.211,1.07,4.543,4.543,0,0,0,.325.7,5.417,5.417,0,0,0,.507.732c.061.074.125.148.191.222l.049.054a8.209,8.209,0,0,0,1.273,1.116,11.167,11.167,0,0,0,.964.615c.341.194.7.374,1.076.545a16.187,16.187,0,0,0,2.416.857c.426.117.863.216,1.306.3l.066.012.127.488.268-.093.268-.093-.95-3.656a15.011,15.011,0,0,1,8.693,0l-.95,3.656.268.093.268.093.127-.488.066-.013c.444-.087.88-.186,1.306-.3a16.2,16.2,0,0,0,2.416-.857c.375-.171.735-.351,1.076-.545a11.162,11.162,0,0,0,.964-.615,8.22,8.22,0,0,0,1.273-1.116l.049-.054c.066-.074.13-.148.191-.222a4.877,4.877,0,0,0,.834-1.432,3.458,3.458,0,0,0,.211-1.071,2.646,2.646,0,0,0,0-.286l-.006-.1-.011.1c-.006.064-.021.157-.045.276a3.5,3.5,0,0,1-.116.427,3.613,3.613,0,0,1-.235.532,4.177,4.177,0,0,1-.385.585,5.374,5.374,0,0,1-.433.482v-1.934c.066-.074.13-.148.191-.222a4.876,4.876,0,0,0,.834-1.432,3.458,3.458,0,0,0,.211-1.071,2.646,2.646,0,0,0,0-.286l-.006-.1-.011.1c-.006.064-.021.157-.045.276a3.521,3.521,0,0,1-.116.427,3.613,3.613,0,0,1-.235.532,4.19,4.19,0,0,1-.385.585,5.365,5.365,0,0,1-.433.482v-2.1a5.124,5.124,0,0,0,1.8-3.567,4.7,4.7,0,0,0-1.418-3.263Zm-6.587-1.738a16.293,16.293,0,0,1,3.215,1.046,8.735,8.735,0,0,1,2.864,1.9l-4.405,3.161A8.265,8.265,0,0,0,26.7,97.633Zm-3.311-.45a22.874,22.874,0,0,1,2.621.313L26,97.525a14.514,14.514,0,0,0-3.588,0l-2.293-4.452A22.822,22.822,0,0,1,25.667,92.761ZM14.148,95.44a13.147,13.147,0,0,1,5.277-2.229L21.7,97.633a8.265,8.265,0,0,0-3.951,1.686l-4.408-3.163A6.582,6.582,0,0,1,14.148,95.44Zm1.95,13.2a12.1,12.1,0,0,1-1.461-.686,8.608,8.608,0,0,1-.834-.525c-.054-.038-.106-.077-.158-.116v-1.853q.312.272.668.528a11.176,11.176,0,0,0,.964.615c.263.15.537.29.82.425Zm0-2.642a12.1,12.1,0,0,1-1.461-.686,8.6,8.6,0,0,1-.834-.525c-.054-.038-.106-.077-.158-.116v-2.147c.229.17.463.328.7.474a12.873,12.873,0,0,0,1.756.907Zm-.576-3.772a7.366,7.366,0,0,1-2.5-1.963,2.9,2.9,0,0,1-.7-1.85,5.211,5.211,0,0,1,.288-1.2,3.749,3.749,0,0,1,.28-.488l4.367,3.134a2.224,2.224,0,0,0-.479,1.336,2.645,2.645,0,0,0,1.14,2.011A13.7,13.7,0,0,1,15.522,102.222Zm3.458,7.263a18.931,18.931,0,0,1-2.228-.609v-1.561A16.384,16.384,0,0,0,18.77,108q.319.088.646.163l.384,1.476Q19.385,109.568,18.98,109.484Zm12.671-.609a18.911,18.911,0,0,1-2.228.609q-.4.083-.82.156l.384-1.476q.326-.075.646-.163a16.393,16.393,0,0,0,2.019-.686v1.56Zm0-2.642a18.93,18.93,0,0,1-2.228.609q-.36.074-.728.14a15.484,15.484,0,0,0-8.986,0q-.368-.066-.728-.14a18.909,18.909,0,0,1-2.228-.609v-2.072a19.7,19.7,0,0,0,4.079.989,24.278,24.278,0,0,0,6.84-.008,19.469,19.469,0,0,0,3.98-.971Zm3.106,1.076c-.052.039-.1.078-.158.116a8.621,8.621,0,0,1-.834.525,12.138,12.138,0,0,1-1.461.686v-1.611c.283-.135.558-.276.82-.425a11.144,11.144,0,0,0,.964-.615c.237-.17.46-.347.668-.528Zm0-2.642c-.052.039-.1.078-.158.116a8.617,8.617,0,0,1-.834.525,12.106,12.106,0,0,1-1.461.686v-2.081a13.387,13.387,0,0,0,1.617-.813,9.961,9.961,0,0,0,.836-.553Zm1.3-6.263a4.119,4.119,0,0,1-1.774,2.909,11.593,11.593,0,0,1-3.774,1.865,2.63,2.63,0,0,0,1.116-1.991,2.225,2.225,0,0,0-.479-1.336L35.5,96.729A3.427,3.427,0,0,1,36.056,98.4Z" transform="translate(-11.212 -91.447)" fill="#0d0d0d"/>
</svg>
