<svg xmlns="http://www.w3.org/2000/svg" xmlns:xlink="http://www.w3.org/1999/xlink" width="152" height="152" viewBox="0 0 152 152">
  <defs>
    <clipPath id="clip-path">
      <rect id="Rectangle_2992" data-name="Rectangle 2992" width="152" height="152" fill="#d7c37a"/>
    </clipPath>
  </defs>
  <g id="TENNIS" transform="translate(0.447)">
    <g id="Group_42084" data-name="Group 42084" transform="translate(-0.447)" clip-path="url(#clip-path)">
      <path id="Path_71162" data-name="Path 71162" d="M49.837,62.971,45.53,58.664l.718-.76a1.942,1.942,0,0,1,1.33-.591,1.9,1.9,0,0,1,1.351.549l1.71,1.71a1.851,1.851,0,0,1,.549,1.33v.021a1.776,1.776,0,0,1-.591,1.33ZM55.664,7.132c-.148.106-.3.232-.443.338A4.45,4.45,0,0,1,52.434,8.5a6.41,6.41,0,0,1-1.372-.169,4.232,4.232,0,0,1-1.879-1.119A5.377,5.377,0,0,0,59.611,5.76C57.923,5.38,56.825,6.224,55.664,7.132ZM47.6,51.149a1.851,1.851,0,0,0,1.33-.549l1.71-1.71a1.9,1.9,0,0,0,.549-1.351,1.776,1.776,0,0,0-.591-1.33l-.76-.718L45.53,49.8l.718.76a1.942,1.942,0,0,0,1.33.591Zm13.363,0a1.776,1.776,0,0,0,1.33-.591l.718-.76L58.7,45.491l-.76.718a1.942,1.942,0,0,0-.591,1.33v.021a1.851,1.851,0,0,0,.549,1.33l1.71,1.71A1.815,1.815,0,0,0,60.963,51.149ZM58.7,62.971l4.307-4.307-.718-.76a1.942,1.942,0,0,0-1.33-.591h-.021a1.851,1.851,0,0,0-1.33.549l-1.71,1.71a1.9,1.9,0,0,0-.549,1.351,1.776,1.776,0,0,0,.591,1.33Zm32.722-41.99L83.467,13a12.745,12.745,0,0,0-.591,1.541l7.494,7.494ZM51.294,7.364a3.532,3.532,0,0,0,3.336-.676c.148-.106.274-.211.422-.317,1.14-.887,2.533-1.963,4.56-1.6A5.375,5.375,0,0,0,49.2,3.606a2.627,2.627,0,0,0,.148,2.153A3.337,3.337,0,0,0,51.294,7.364ZM17.6,26.2a11.378,11.378,0,0,0,2.2-.063l2.322-2.3-1.077-1.077Zm-4.539-1.14a12.746,12.746,0,0,0,1.541.591L22.1,18.152,21.02,17.075ZM99.934,12.473,92.165,4.7a11.183,11.183,0,0,0-1.436.7l8.128,8.128Zm1.351,36.691a5.377,5.377,0,0,0,1.457,10.429c.4-1.71-.464-2.829-1.372-3.99-.106-.148-.232-.3-.338-.443A4.45,4.45,0,0,1,100,52.373,6.409,6.409,0,0,1,100.166,51,4.348,4.348,0,0,1,101.285,49.164Zm-4.2-28.183L85.663,9.56c-.338.4-.654.8-.929,1.2L96.007,22.036Zm-11.337,0L82.306,17.54a11.378,11.378,0,0,0,.063,2.2l2.322,2.322Zm14.187-2.829L88.618,6.836c-.38.3-.781.633-1.161.971L98.878,19.229Zm-89.11,5.616L22.1,12.494,21.02,11.418,9.6,22.839C10.021,23.155,10.423,23.472,10.824,23.768Zm97.66,30.463a5.374,5.374,0,0,0-3.589-5.067,2.628,2.628,0,0,0-2.153.148,3.447,3.447,0,0,0-.929,5.278c.106.148.211.274.317.422.887,1.14,1.963,2.533,1.6,4.56A5.387,5.387,0,0,0,108.484,54.231ZM99.934,6.815,97.1,3.986a8.327,8.327,0,0,0-2.132,0l3.906,3.906Zm-38,39.773-2.111-2.111,10.661-10.07c3.758-3.758,5-8.613,6.333-13.722a52.083,52.083,0,0,1,2.829-8.74,18.946,18.946,0,0,1,4.1-6.017c8.064-8.064,16.424-6.946,21.111-2.259s5.827,13.047-2.259,21.111a18.272,18.272,0,0,1-6.017,4.1,52.085,52.085,0,0,1-8.74,2.829c-5.13,1.33-9.964,2.576-13.722,6.333L64.045,48.7ZM80.786,18.363A11.036,11.036,0,0,0,83.045,25.5a11.036,11.036,0,0,0,7.136,2.259,14.169,14.169,0,0,0,5.573-1.119,17.568,17.568,0,0,0,5.151-3.547c3.8-3.8,5.236-7.452,5.236-10.577A10.163,10.163,0,0,0,96.028,2.4c-3.124,0-6.777,1.436-10.577,5.236A18.274,18.274,0,0,0,81.9,12.79,13.8,13.8,0,0,0,80.786,18.363ZM74.6,33.141l.4.4.4.4c3.314-2.2,7.072-3.293,10.788-4.264a10.945,10.945,0,0,1-4.834-2.449h0A10.523,10.523,0,0,1,78.907,22.4C77.894,26.069,76.8,29.826,74.6,33.141ZM102.594,83.7c8.064,8.064,6.946,16.424,2.259,21.111s-13.047,5.827-21.111-2.259a18.272,18.272,0,0,1-4.1-6.017,52.084,52.084,0,0,1-2.829-8.74c-1.33-5.13-2.576-9.964-6.333-13.722L59.823,64.005l2.111-2.111,2.111-2.111,10.07,10.661c3.758,3.758,8.613,5,13.722,6.333a52.083,52.083,0,0,1,8.74,2.829A18.489,18.489,0,0,1,102.594,83.7ZM81.314,81.3h0a10.942,10.942,0,0,1,4.856-2.47c-3.716-.971-7.473-2.069-10.788-4.264l-.4.4-.4.4c2.2,3.314,3.293,7.072,4.264,10.788A10.708,10.708,0,0,1,81.314,81.3ZM106.1,95.968c0-3.124-1.436-6.777-5.236-10.577a18.275,18.275,0,0,0-5.151-3.547,13.866,13.866,0,0,0-5.573-1.119A11.036,11.036,0,0,0,83,82.984a11.036,11.036,0,0,0-2.259,7.136,14.169,14.169,0,0,0,1.119,5.573,17.568,17.568,0,0,0,3.547,5.151c3.8,3.8,7.452,5.236,10.577,5.236A10.163,10.163,0,0,0,106.1,95.968ZM57.247,101.1a3.532,3.532,0,0,0-3.336.676c-.148.106-.274.211-.422.317-1.14.887-2.533,1.963-4.56,1.6a5.376,5.376,0,0,0,10.408,1.14,2.627,2.627,0,0,0-.148-2.153A3.371,3.371,0,0,0,57.247,101.1ZM90.94,82.266a11.378,11.378,0,0,0-2.2.063l-2.322,2.322L87.5,85.729ZM52.877,101.33c.148-.106.3-.232.443-.338a4.45,4.45,0,0,1,2.787-1.034,6.411,6.411,0,0,1,1.372.169,4.233,4.233,0,0,1,1.879,1.119A5.377,5.377,0,0,0,48.929,102.7C50.618,103.082,51.716,102.238,52.877,101.33Zm42.6-17.923a12.745,12.745,0,0,0-1.541-.591L86.444,90.31l1.077,1.077ZM46.607,61.873l2.111,2.111L38.057,74.075c-3.758,3.758-5,8.613-6.333,13.722a52.084,52.084,0,0,1-2.829,8.74,18.946,18.946,0,0,1-4.1,6.017c-8.064,8.064-16.424,6.946-21.111,2.259S-2.139,91.766,5.947,83.7a18.272,18.272,0,0,1,6.017-4.1,52.083,52.083,0,0,1,8.74-2.829c5.13-1.33,9.964-2.576,13.722-6.333L44.5,59.783ZM27.755,90.1A11.036,11.036,0,0,0,25.5,82.963,11.036,11.036,0,0,0,18.36,80.7a14.169,14.169,0,0,0-5.573,1.119A17.568,17.568,0,0,0,7.636,85.37C3.836,89.17,2.4,92.822,2.4,95.946a10.163,10.163,0,0,0,10.112,10.112c3.124,0,6.777-1.436,10.577-5.236a18.274,18.274,0,0,0,3.547-5.151A13.8,13.8,0,0,0,27.755,90.1ZM33.94,75.321l-.4-.4-.4-.4c-3.314,2.2-7.072,3.293-10.788,4.264a10.945,10.945,0,0,1,4.834,2.449h0a10.523,10.523,0,0,1,2.449,4.834C30.647,82.393,31.745,78.635,33.94,75.321ZM96.028,99.894l7.769-7.769a11.184,11.184,0,0,0-.7-1.436l-8.128,8.128Zm1.689-15.2L86.444,95.968l1.077,1.077L98.941,85.623C98.519,85.306,98.118,84.99,97.717,84.694ZM89.273,98.818l1.077,1.077,11.316-11.316c-.3-.38-.633-.781-.971-1.161ZM22.794,87.481l3.441,3.441a11.378,11.378,0,0,0-.063-2.2L23.87,86.4ZM6.855,8.568,4,11.418A8.327,8.327,0,0,0,4,13.55L7.91,9.644Zm94.831,91.327,2.829-2.829a8.327,8.327,0,0,0,0-2.132l-3.906,3.906ZM5.947,24.76C-2.117,16.7-1,8.335,3.688,3.649,8.4-1.059,16.756-2.178,24.82,5.886a18.272,18.272,0,0,1,4.1,6.017,52.084,52.084,0,0,1,2.829,8.74c1.33,5.13,2.576,9.964,6.333,13.722l10.661,10.07-2.111,2.111-2.111,2.111L34.426,38.018c-3.758-3.758-8.613-5-13.722-6.333a52.084,52.084,0,0,1-8.74-2.829A18.489,18.489,0,0,1,5.947,24.76Zm21.28,2.407h0a10.942,10.942,0,0,1-4.856,2.47c3.716.971,7.473,2.069,10.788,4.264l.4-.4.4-.4c-2.2-3.314-3.293-7.072-4.264-10.788A10.708,10.708,0,0,1,27.227,27.166ZM2.443,12.494c0,3.124,1.436,6.777,5.236,10.577a18.274,18.274,0,0,0,5.151,3.547A13.866,13.866,0,0,0,18.4,27.736a11.036,11.036,0,0,0,7.136-2.259A11.036,11.036,0,0,0,27.8,18.342a14.169,14.169,0,0,0-1.119-5.573,17.568,17.568,0,0,0-3.547-5.151c-3.8-3.8-7.452-5.236-10.577-5.236A10.163,10.163,0,0,0,2.443,12.494ZM17.115,87.481l7.98,7.98a12.747,12.747,0,0,0,.591-1.541l-7.494-7.494Zm-6.291-33.25A5.364,5.364,0,0,0,5.8,48.869c-.4,1.71.464,2.829,1.372,3.99.106.148.232.3.338.443a4.451,4.451,0,0,1,1.034,2.787,6.41,6.41,0,0,1-.169,1.372A4.232,4.232,0,0,1,7.256,59.34,5.452,5.452,0,0,0,10.824,54.231ZM12.513,8.568,4.765,16.336a11.183,11.183,0,0,0,.7,1.436l8.128-8.128Zm6.756,1.077L18.191,8.568,6.876,19.9c.3.38.633.781.971,1.161ZM.057,54.231A5.374,5.374,0,0,0,3.646,59.3,2.627,2.627,0,0,0,5.8,59.15a3.447,3.447,0,0,0,.929-5.278c-.106-.148-.211-.274-.317-.422-.887-1.14-1.963-2.533-1.6-4.56A5.387,5.387,0,0,0,.057,54.231ZM8.607,90.31l11.316,11.316c.38-.3.781-.633,1.161-.971L9.663,89.233Zm2.85-2.829L22.878,98.9c.338-.4.654-.8.929-1.2L12.534,86.425Zm-2.85,8.508,7.769,7.769a11.183,11.183,0,0,0,1.436-.7L9.684,94.933Zm0,5.658,2.829,2.829a8.327,8.327,0,0,0,2.132,0L9.663,100.57Z" transform="translate(22.128 21.769)" fill="#d7c37a"/>
    </g>
  </g>
</svg>
