<svg xmlns="http://www.w3.org/2000/svg" width="35" height="35" viewBox="0 0 35 35">
  <path id="Icon_awesome-arrow-circle-right" data-name="Icon awesome-arrow-circle-right" d="M18.063.563a17.5,17.5,0,1,1-17.5,17.5A17.5,17.5,0,0,1,18.063.563ZM16.023,10.7,21.351,15.8H8.466A1.689,1.689,0,0,0,6.772,17.5v1.129a1.689,1.689,0,0,0,1.694,1.694H21.351l-5.328,5.109a1.7,1.7,0,0,0-.028,2.42l.776.769a1.687,1.687,0,0,0,2.392,0l9.364-9.357a1.687,1.687,0,0,0,0-2.392L19.163,7.5a1.687,1.687,0,0,0-2.392,0l-.776.769a1.7,1.7,0,0,0,.028,2.427Z" transform="translate(35.563 35.563) rotate(180)" fill="#62d66e"/>
</svg>
