<svg xmlns="http://www.w3.org/2000/svg" width="35" height="35" viewBox="0 0 35 35">
  <path id="Icon_awesome-check-circle" data-name="Icon awesome-check-circle" d="M35.563,18.062a17.5,17.5,0,1,1-17.5-17.5A17.5,17.5,0,0,1,35.563,18.062ZM16.038,27.329,29.022,14.345a1.129,1.129,0,0,0,0-1.6l-1.6-1.6a1.129,1.129,0,0,0-1.6,0L15.24,21.74,10.3,16.8a1.129,1.129,0,0,0-1.6,0l-1.6,1.6a1.129,1.129,0,0,0,0,1.6l7.339,7.339A1.129,1.129,0,0,0,16.038,27.329Z" transform="translate(-0.563 -0.563)" fill="#62d66e"/>
</svg>
