<svg xmlns="http://www.w3.org/2000/svg" width="28" height="28" viewBox="0 0 28 28">
  <path id="Icon_material-language" data-name="Icon material-language" d="M16.986,3A14,14,0,1,0,31,17,13.993,13.993,0,0,0,16.986,3Zm9.7,8.4h-4.13a21.909,21.909,0,0,0-1.932-4.984A11.242,11.242,0,0,1,26.688,11.4ZM17,5.856A19.721,19.721,0,0,1,19.674,11.4H14.326A19.721,19.721,0,0,1,17,5.856ZM6.164,19.8a10.951,10.951,0,0,1,0-5.6H10.9a23.122,23.122,0,0,0-.2,2.8,23.122,23.122,0,0,0,.2,2.8Zm1.148,2.8h4.13a21.909,21.909,0,0,0,1.932,4.984A11.182,11.182,0,0,1,7.312,22.6Zm4.13-11.2H7.312a11.182,11.182,0,0,1,6.062-4.984A21.909,21.909,0,0,0,11.442,11.4ZM17,28.144A19.721,19.721,0,0,1,14.326,22.6h5.348A19.721,19.721,0,0,1,17,28.144ZM20.276,19.8H13.724A20.6,20.6,0,0,1,13.5,17a20.419,20.419,0,0,1,.224-2.8h6.552A20.419,20.419,0,0,1,20.5,17,20.6,20.6,0,0,1,20.276,19.8Zm.35,7.784A21.909,21.909,0,0,0,22.558,22.6h4.13a11.242,11.242,0,0,1-6.062,4.984ZM23.1,19.8a23.121,23.121,0,0,0,.2-2.8,23.122,23.122,0,0,0-.2-2.8h4.732a10.951,10.951,0,0,1,0,5.6Z" transform="translate(-3 -3)" fill="#fff"/>
</svg>
