<svg id="premier-league-logo-header-mob" xmlns="http://www.w3.org/2000/svg" width="24.155" height="30.418" viewBox="0 0 24.155 30.418">
  <path id="Path_496" data-name="Path 496" d="M11.806,10.49a5.624,5.624,0,0,1,2.3,1.591c-.07-.346-.279-2.006-.488-3.043.766.553,2.577,1.8,3.274,2.213C17.17,10.49,18.005,8,18.005,8s1.6,2.49,1.811,2.836C20.1,10.559,21.976,8.553,22.394,8c.07,1.176.209,2.836.279,3.112a5.838,5.838,0,0,1,1.95-1.936,8.481,8.481,0,0,0-.836,3.527A15.291,15.291,0,0,0,20.1,12.15a12.9,12.9,0,0,0-6.687,1.8,10.569,10.569,0,0,0-1.6-3.458ZM30.4,31.722l-1.114-1.245a9.9,9.9,0,0,1-4.806,7.815L24,36.494a9.764,9.764,0,0,1-10.239.83,14.009,14.009,0,0,0,0-7.4,15,15,0,0,1-3.831,4.357C8.6,32,8.672,27.5,9.159,26.189L7,27.019a12.2,12.2,0,0,1,2.717-6.57l-1.393-.277a12.785,12.785,0,0,1,4.179-4.91,2.608,2.608,0,0,0,1.045,3.6,3.023,3.023,0,0,1-.07-3.32,1.841,1.841,0,0,1,2.508.069,2.118,2.118,0,0,0-1.811-1.452A13.36,13.36,0,0,1,20.1,12.7a8.512,8.512,0,0,1,1.254.069A5.852,5.852,0,0,1,23.3,14.5a5.046,5.046,0,0,0-.279-1.452,9.453,9.453,0,0,1,3.9,1.936,6.441,6.441,0,0,0,.766,2.559,12.126,12.126,0,0,0-3.622-2.49,3.9,3.9,0,0,1-.348,1.314A13.87,13.87,0,0,0,21,14.709a7.307,7.307,0,0,0-3.97,1.729l.627.553a3.778,3.778,0,0,0-1.95,1.383l1.114.207a2.153,2.153,0,0,0,1.463,1.936c1.323.761,3.343-.207,5.085.553a19.044,19.044,0,0,0-1.95-1.936,7.385,7.385,0,0,0-.836-.069,4.321,4.321,0,0,1-1.741-.207c-.279-.207-.766-.346-1.045-.553a4.713,4.713,0,0,1,2.02-1.107,6.286,6.286,0,0,1,1.95.9,1.97,1.97,0,0,1,1.184-.553,1.187,1.187,0,0,0-.348,1.245c.836.761,1.811,1.867,1.811,1.867,1.045-.553,3.065-.346,3.413.069a11.29,11.29,0,0,0-1.881-1.8,10.87,10.87,0,0,0-.836-1.314,6.8,6.8,0,0,1,1.254.761,1.387,1.387,0,0,1,.836-.553,1.061,1.061,0,0,1,.488,1.037c-.279.277-.348.277-.348.277l1.045,1.107.07-.761C30.752,22.939,32.076,26.812,30.4,31.722ZM25.946,24.46v-1.8a8.225,8.225,0,0,1-1.672-.9,9.724,9.724,0,0,0-3.692,1.867s.766,1.314,1.463,2.7C23.438,26.535,25.319,25.014,25.946,24.46Zm1.672,3.112a3.862,3.862,0,0,0-.766-1.383H25.528s-1.811,1.591-2.856,1.591c0,0,.627,1.107.906,1.729A4.761,4.761,0,0,0,25.6,28.4a7.148,7.148,0,0,1,.279,1.867A3.562,3.562,0,0,0,27.618,27.572Zm.557-5.671c-.766.553-1.254.83-1.254.83v1.8a6.374,6.374,0,0,1,1.323,1.8,5.189,5.189,0,0,0-.07-4.426Z" transform="translate(-7 -8)" fill="#360c3a"/>
</svg>
