<svg xmlns="http://www.w3.org/2000/svg" width="91.854" height="68.89" viewBox="0 0 91.854 68.89">
  <path id="image" d="M83.242,73.39H8.611A8.611,8.611,0,0,1,0,64.779V13.111A8.611,8.611,0,0,1,8.611,4.5H83.242a8.611,8.611,0,0,1,8.611,8.611V64.779A8.611,8.611,0,0,1,83.242,73.39ZM20.093,14.546A10.046,10.046,0,1,0,30.139,24.593,10.046,10.046,0,0,0,20.093,14.546ZM11.482,61.908h68.89V41.815l-15.7-15.7a2.153,2.153,0,0,0-3.045,0L37.315,50.427l-9.959-9.959a2.153,2.153,0,0,0-3.045,0L11.482,53.3Z" transform="translate(0 -4.5)" fill="#b4b4b4"/>
</svg>
