<svg width="221" height="179" viewBox="0 0 221 179" fill="none" xmlns="http://www.w3.org/2000/svg">
<g clip-path="url(#clip0_1491_18762)">
<path d="M73.1844 161.097C83.8762 155.324 94.2 148.208 103.737 139.894C115.128 129.965 116.314 112.681 106.386 101.288C96.4591 89.8958 79.1311 88.6561 67.7875 98.6386C61.7303 103.969 54.1346 109.259 46.1053 113.514C50.4256 134.256 59.0082 150.577 73.1844 161.098L73.1844 161.097Z" fill="white"/>
<path d="M73.1844 161.262C73.1492 161.262 73.1149 161.25 73.0866 161.229C66.1617 156.09 60.3475 149.357 55.8057 141.218C51.4678 133.445 48.1501 124.135 45.9447 113.548C45.9375 113.513 45.9417 113.476 45.9568 113.444C45.9719 113.412 45.9971 113.386 46.0285 113.369C53.7634 109.27 61.4524 103.995 67.6791 98.5151C73.1674 93.6853 80.2215 91.2933 87.5399 91.7778C91.1237 92.0153 94.5736 92.9301 97.7935 94.4966C101.125 96.1175 104.058 98.3662 106.51 101.18C111.34 106.723 113.723 113.816 113.22 121.151C112.716 128.486 109.387 135.186 103.845 140.017C94.4249 148.229 84.1355 155.37 73.2622 161.242C73.2377 161.255 73.2109 161.261 73.1843 161.261L73.1844 161.262ZM46.2912 113.601C50.8376 135.33 59.6408 150.804 73.1984 160.903C84.0165 155.052 94.2542 147.942 103.629 139.77C114.933 129.917 116.115 112.702 106.263 101.396C101.463 95.8878 94.8062 92.5885 87.5183 92.1054C80.2881 91.6272 73.3183 93.99 67.8961 98.7616C61.68 104.232 54.0113 109.499 46.2913 113.601L46.2912 113.601Z" fill="#021C47"/>
<path d="M103.729 122.029C103.729 122.029 106.605 120.779 107.587 120.366C110.751 119.037 120.551 120.493 123.227 120.776C126.484 121.121 127.667 124.552 127.678 127.156C127.69 129.969 125.594 133.209 122.624 133.185C120.721 133.169 112.2 133.084 112.2 133.084C108.69 136.667 105.083 139.148 101.098 142.148" fill="white"/>
<path d="M101.098 142.312C101.064 142.312 101.03 142.301 101.002 142.281C100.974 142.261 100.953 142.232 100.942 142.2C100.931 142.167 100.931 142.132 100.941 142.099C100.951 142.066 100.972 142.037 100.999 142.016C101.67 141.512 102.336 141.017 102.98 140.539C106.164 138.174 109.172 135.94 112.083 132.969C112.114 132.937 112.157 132.923 112.201 132.92C112.287 132.921 120.745 133.005 122.625 133.021L122.657 133.021C123.743 133.021 124.774 132.565 125.641 131.701C126.803 130.543 127.521 128.802 127.514 127.157C127.505 125.016 126.588 121.297 123.21 120.939C122.847 120.901 122.347 120.84 121.768 120.77C118.061 120.32 110.348 119.385 107.651 120.517C106.681 120.925 103.823 122.167 103.794 122.18C103.755 122.196 103.71 122.196 103.67 122.18C103.63 122.164 103.598 122.133 103.581 122.093C103.564 122.054 103.563 122.009 103.578 121.969C103.594 121.929 103.624 121.896 103.664 121.879C103.692 121.866 106.552 120.623 107.524 120.215C110.301 119.048 118.073 119.991 121.808 120.444C122.385 120.514 122.884 120.575 123.244 120.613C126.403 120.947 127.83 124.14 127.842 127.155C127.85 128.885 127.095 130.716 125.873 131.934C124.934 132.87 123.808 133.361 122.622 133.349C120.833 133.335 113.089 133.257 112.268 133.249C109.355 136.214 106.353 138.443 103.176 140.802C102.532 141.28 101.866 141.775 101.197 142.279C101.168 142.3 101.134 142.312 101.098 142.312L101.098 142.312Z" fill="#021C47"/>
<path d="M99.0809 111.147C99.0809 111.147 102.59 109.637 103.572 109.224C106.736 107.895 116.021 105.391 118.63 104.735C121.807 103.937 124.099 106.752 125.005 109.193C125.985 111.83 125.132 115.594 122.335 116.593C120.543 117.234 110.459 120.978 110.459 120.978L103.944 125.24" fill="white"/>
<path d="M103.944 125.404C103.909 125.405 103.874 125.393 103.846 125.372C103.817 125.351 103.796 125.321 103.786 125.287C103.776 125.253 103.777 125.217 103.789 125.184C103.802 125.151 103.824 125.122 103.854 125.103L110.369 120.84C110.38 120.834 110.391 120.828 110.402 120.824C110.503 120.787 120.507 117.072 122.279 116.439C123.313 116.069 124.135 115.282 124.657 114.161C125.35 112.674 125.424 110.792 124.851 109.25C124.106 107.242 121.965 104.066 118.67 104.894C116.275 105.496 106.808 108.043 103.636 109.375C102.665 109.783 99.1808 111.282 99.1457 111.297C99.1259 111.306 99.1046 111.31 99.083 111.311C99.0615 111.311 99.0401 111.307 99.0201 111.299C99 111.291 98.9818 111.279 98.9664 111.264C98.9509 111.249 98.9386 111.231 98.9301 111.211C98.9216 111.191 98.9171 111.17 98.9168 111.149C98.9165 111.127 98.9204 111.106 98.9284 111.086C98.9364 111.066 98.9482 111.047 98.9633 111.032C98.9783 111.016 98.9962 111.004 99.016 110.996C99.0511 110.98 102.537 109.481 103.508 109.073C106.67 107.745 115.8 105.277 118.59 104.576C121.671 103.802 124.109 106.308 125.159 109.136C125.761 110.757 125.683 112.736 124.955 114.299C124.395 115.502 123.508 116.348 122.39 116.748C120.655 117.368 111.007 120.949 110.534 121.125L104.034 125.378C104.007 125.395 103.976 125.404 103.944 125.404Z" fill="#021C47"/>
<path d="M91.7454 100.399C94.6712 99.0903 97.0683 98.0861 98.0505 97.6735C101.214 96.3448 111.31 94.2898 113.969 93.8779C117.205 93.3765 119.228 96.3909 119.905 98.9049C120.637 101.621 119.441 105.29 116.563 106.027C114.72 106.5 104.938 109.427 104.938 109.427L98.6015 113.573" fill="white"/>
<path d="M98.6016 113.737C98.5662 113.737 98.5317 113.726 98.5033 113.704C98.4749 113.683 98.454 113.654 98.4439 113.62C98.4338 113.586 98.4349 113.549 98.4471 113.516C98.4593 113.483 98.4819 113.455 98.5116 113.435L104.848 109.29C104.861 109.281 104.875 109.275 104.891 109.27C104.988 109.241 114.698 106.336 116.522 105.869C117.585 105.596 118.477 104.888 119.1 103.82C119.927 102.403 120.175 100.536 119.747 98.9477C119.19 96.8802 117.35 93.519 113.994 94.0402C111.37 94.4467 101.284 96.4938 98.114 97.8249L98.0289 97.8607C97.0194 98.2846 94.6552 99.2774 91.8123 100.549C91.7927 100.557 91.7714 100.562 91.7499 100.563C91.7283 100.563 91.7069 100.56 91.6867 100.552C91.6666 100.544 91.6482 100.533 91.6325 100.518C91.6169 100.503 91.6043 100.485 91.5955 100.466C91.5867 100.446 91.5818 100.425 91.5812 100.403C91.5806 100.382 91.5843 100.36 91.592 100.34C91.5997 100.32 91.6113 100.301 91.6261 100.286C91.6409 100.27 91.6587 100.258 91.6783 100.249C94.5246 98.976 96.8912 97.9823 97.9018 97.5579L97.9869 97.5222C101.18 96.1812 111.31 94.1238 113.944 93.7157C117.082 93.2301 119.279 95.9502 120.064 98.8622C120.514 100.533 120.253 102.496 119.384 103.985C118.715 105.131 117.754 105.892 116.604 106.187C114.828 106.641 105.538 109.419 105.008 109.578L98.6913 113.71C98.6646 113.727 98.6334 113.737 98.6016 113.737V113.737Z" fill="#021C47"/>
<path d="M72.6752 95.2075C78.8808 91.2279 88.7934 87.4276 91.3017 86.3742C94.4656 85.0454 102.937 81.5179 105.479 80.6371C108.574 79.5648 111.103 82.1688 112.218 84.5212C113.424 87.0627 112.903 90.8868 110.204 92.1268C108.475 92.9209 98.1889 98.128 98.1889 98.128L91.6328 102.417" fill="white"/>
<path d="M91.6329 102.581C91.5975 102.581 91.563 102.57 91.5346 102.549C91.5062 102.528 91.4854 102.498 91.4752 102.464C91.4651 102.43 91.4662 102.394 91.4784 102.361C91.4906 102.327 91.5132 102.299 91.5429 102.28L98.0989 97.9906C98.104 97.9874 98.1093 97.9843 98.1146 97.9816C98.2175 97.9295 108.424 92.7641 110.135 91.9776C111.132 91.5195 111.883 90.663 112.305 89.5008C112.865 87.9592 112.775 86.0781 112.07 84.5916C111.152 82.6571 108.743 79.6799 105.532 80.7923C102.667 81.7851 92.5134 86.0433 91.3651 86.5255C91.0287 86.6668 90.5688 86.8535 89.9865 87.0901C86.137 88.6534 78.1266 91.9064 72.7636 95.3457C72.7455 95.3576 72.7251 95.3658 72.7038 95.3699C72.6825 95.3739 72.6606 95.3736 72.6393 95.3691C72.6181 95.3646 72.598 95.3559 72.5801 95.3435C72.5623 95.3312 72.547 95.3154 72.5353 95.2972C72.5236 95.2789 72.5156 95.2585 72.5119 95.2371C72.5081 95.2157 72.5086 95.1938 72.5134 95.1726C72.5181 95.1514 72.527 95.1314 72.5396 95.1137C72.5521 95.096 72.5681 95.0809 72.5865 95.0694C77.9751 91.6137 86.0044 88.353 89.863 86.7859C90.4443 86.5498 90.9035 86.3634 91.238 86.2229C92.3873 85.7402 102.55 81.4783 105.425 80.4821C108.426 79.4417 111.074 81.7262 112.367 84.4509C113.108 86.0138 113.203 87.9918 112.614 89.6129C112.161 90.8595 111.351 91.7803 110.272 92.2758C108.587 93.0502 98.6109 98.0982 98.2709 98.2703L91.7224 102.554C91.6958 102.572 91.6646 102.581 91.6327 102.581L91.6329 102.581ZM66.3178 164.597C53.7614 155.003 40.7605 130.077 40.8665 116.104C44.8672 114.231 48.9085 112.018 52.9795 109.559C52.8735 123.532 66.139 148.387 78.6954 157.981C74.4945 160.437 70.3617 162.665 66.3178 164.597L66.3178 164.597Z" fill="#021C47"/>
<path d="M66.3179 164.762C66.2825 164.762 66.2474 164.75 66.2182 164.728C60.2292 160.152 53.8436 151.893 48.6984 142.069C46.268 137.428 44.2547 132.659 42.8763 128.276C41.4079 123.607 40.6766 119.512 40.7024 116.103C40.7027 116.072 40.7117 116.041 40.7284 116.015C40.7451 115.989 40.7689 115.968 40.797 115.955C44.6185 114.166 48.5756 112.028 52.8947 109.418C52.9197 109.403 52.9482 109.395 52.9774 109.395C53.0066 109.394 53.0353 109.402 53.0607 109.416C53.086 109.431 53.1071 109.452 53.1217 109.477C53.1362 109.502 53.1438 109.531 53.1436 109.56C53.0384 123.423 66.2238 148.246 78.7951 157.851C78.8165 157.867 78.8336 157.889 78.8448 157.913C78.856 157.938 78.861 157.965 78.8593 157.992C78.8576 158.019 78.8494 158.045 78.8352 158.068C78.8211 158.091 78.8015 158.11 78.7783 158.123C74.3442 160.715 70.2915 162.881 66.3886 164.746C66.3665 164.756 66.3424 164.762 66.3179 164.762ZM41.0301 116.208C40.9882 130.192 53.9485 154.876 66.3378 164.406C70.1428 162.585 74.0922 160.475 78.4021 157.963C75.4041 155.637 72.3211 152.432 69.2353 148.433C66.2754 144.597 63.4083 140.122 60.9442 135.489C55.8034 125.826 52.8514 116.506 52.8151 109.85C48.6182 112.376 44.7593 114.458 41.0301 116.208V116.208Z" fill="#021C47"/>
<path d="M59.2511 105.383C60.4459 102.901 63.322 96.6544 65.2315 94.0049C67.5339 90.8101 75.6504 84.8061 78.2769 82.6408C80.702 80.6414 84.5483 79.3873 87.3247 81.5672C89.6904 83.4247 90.8342 86.7687 88.9709 89.603C87.8515 91.3056 80.9506 99.8392 80.9506 99.8392C83.8717 106.737 82.0338 114.963 76.6048 118.519" fill="white"/>
<path d="M76.605 118.684C76.5696 118.684 76.5352 118.672 76.5069 118.651C76.4785 118.63 76.4577 118.6 76.4476 118.566C76.4375 118.533 76.4385 118.496 76.4507 118.463C76.4628 118.43 76.4853 118.402 76.5149 118.382C81.8306 114.899 83.7126 106.783 80.7994 99.9033C80.7878 99.8759 80.7839 99.8458 80.788 99.8164C80.7922 99.7869 80.8042 99.7591 80.823 99.736C80.8919 99.6507 87.7316 91.1892 88.8337 89.5129C90.6988 86.6758 89.4353 83.4331 87.2232 81.6963C84.5545 79.6009 80.8592 80.7243 78.3811 82.7675C77.8207 83.2295 77.0068 83.8691 76.0644 84.6097C72.5199 87.3952 67.1634 91.6047 65.3645 94.101C63.7089 96.3981 61.3479 101.361 59.9372 104.326C59.7338 104.754 59.5525 105.135 59.3989 105.454C59.3896 105.473 59.3765 105.491 59.3604 105.505C59.3444 105.519 59.3256 105.53 59.3053 105.538C59.285 105.545 59.2634 105.548 59.2419 105.546C59.2204 105.545 59.1994 105.54 59.1799 105.531C59.1605 105.521 59.1431 105.508 59.1288 105.492C59.1144 105.476 59.1034 105.457 59.0963 105.437C59.0891 105.417 59.0861 105.395 59.0873 105.374C59.0885 105.352 59.0939 105.331 59.1033 105.312C59.2566 104.993 59.4377 104.612 59.6409 104.185C61.0564 101.21 63.4254 96.2303 65.0983 93.9089C66.9243 91.3752 72.3027 87.1484 75.8618 84.3515C76.8026 83.6122 77.6151 82.9737 78.1725 82.5141C79.5068 81.414 81.0934 80.6543 82.6399 80.3752C84.4659 80.0456 86.1207 80.4132 87.4261 81.4381C89.7561 83.2675 91.0821 86.6905 89.1081 89.6932C88.0406 91.3169 81.8719 98.9603 81.14 99.8661C84.0579 106.867 82.1155 115.105 76.6948 118.657C76.6682 118.674 76.6369 118.684 76.605 118.684Z" fill="#021C47"/>
</g>
<g clip-path="url(#clip1_1491_18762)">
<path d="M169.132 137.747L89.7627 148.13C87.6885 148.401 85.7874 146.938 85.5163 144.862L70.9207 33.056C70.6496 30.9797 72.1113 29.0766 74.1854 28.8052L153.555 18.422C155.629 18.1507 157.53 19.614 157.801 21.6902L172.397 133.496C172.668 135.572 171.206 137.475 169.132 137.747Z" fill="#021C47"/>
<path d="M89.2691 148.326C87.3163 148.326 85.614 146.872 85.3544 144.883L70.7587 33.077C70.6219 32.0296 70.9009 30.9914 71.5441 30.154C72.1873 29.3165 73.1178 28.7799 74.1643 28.6429L153.533 18.2598C155.693 17.9768 157.681 19.5065 157.963 21.6689L172.559 133.475C172.695 134.522 172.416 135.56 171.773 136.398C171.13 137.235 170.199 137.772 169.153 137.909L89.7838 148.292C89.6131 148.314 89.4412 148.326 89.2691 148.326ZM154.048 18.5532C153.892 18.5532 153.734 18.5633 153.576 18.5841L74.2066 28.9672C73.2467 29.0927 72.3932 29.585 71.803 30.3532C71.2129 31.1214 70.9572 32.0738 71.0826 33.0347L85.6783 144.84C85.9372 146.824 87.7591 148.227 89.7416 147.968L169.111 137.585C170.071 137.459 170.924 136.967 171.514 136.198C172.104 135.43 172.36 134.478 172.235 133.517L157.639 21.7113C157.401 19.8865 155.839 18.5532 154.048 18.5532Z" fill="#021C47"/>
<path d="M75.5459 32.8933L153.293 22.7212L167.777 133.661L90.0301 143.833L75.5459 32.8933Z" fill="white"/>
<path d="M90.0271 143.993C89.9875 143.993 89.9492 143.978 89.9195 143.952C89.8897 143.926 89.8705 143.89 89.8654 143.851L75.3832 32.9145C75.3776 32.8715 75.3893 32.828 75.4156 32.7936C75.442 32.7593 75.481 32.7368 75.524 32.7311L153.269 22.5604C153.312 22.5549 153.355 22.5666 153.389 22.593C153.424 22.6194 153.446 22.6584 153.452 22.7014L167.934 133.638C167.937 133.659 167.935 133.681 167.93 133.701C167.924 133.722 167.914 133.741 167.901 133.758C167.888 133.775 167.872 133.79 167.853 133.8C167.835 133.811 167.814 133.818 167.793 133.821L90.0484 143.992C90.0414 143.993 90.0342 143.993 90.0271 143.993ZM75.7282 33.0342L90.168 143.646L167.589 133.518L153.149 22.9059L75.7282 33.0342Z" fill="#021C47"/>
<path d="M134.067 17.6822L120.261 19.4884L120.06 17.9494C119.569 14.1823 116.119 11.5277 112.356 12.0199C108.593 12.5122 105.942 15.9651 106.433 19.7321L106.634 21.2711L92.8285 23.0772C91.5089 23.2498 90.579 24.4606 90.7514 25.7816L91.8858 34.4712L137.903 28.4512L136.769 19.7615C136.596 18.4405 135.387 17.5096 134.067 17.6822Z" fill="#EC535B"/>
<path d="M91.8858 34.6347C91.8461 34.6346 91.8079 34.6202 91.7781 34.594C91.7483 34.5678 91.729 34.5317 91.7238 34.4924L90.5894 25.8027C90.5003 25.1205 90.682 24.4444 91.1009 23.899C91.5198 23.3535 92.1259 23.0041 92.8073 22.9149L106.451 21.13L106.271 19.7531C105.769 15.9027 108.489 12.3608 112.335 11.8577C114.198 11.6139 116.045 12.1111 117.535 13.2576C119.024 14.4042 119.979 16.063 120.222 17.9281L120.402 19.305L134.046 17.5201C135.452 17.3361 136.747 18.3321 136.931 19.7403L138.065 28.43C138.068 28.4513 138.066 28.4729 138.061 28.4937C138.055 28.5144 138.046 28.5338 138.033 28.5509C138.019 28.5679 138.003 28.5821 137.985 28.5929C137.966 28.6036 137.945 28.6105 137.924 28.6133L91.9069 34.6333C91.8999 34.6342 91.8929 34.6347 91.8858 34.6347ZM113.261 12.1243C112.968 12.1243 112.673 12.1434 112.378 12.182C108.71 12.6618 106.116 16.0393 106.595 19.7108L106.796 21.2498C106.802 21.2928 106.79 21.3363 106.764 21.3707C106.737 21.405 106.698 21.4275 106.655 21.4332L92.8498 23.2393C92.2549 23.3171 91.7257 23.6222 91.36 24.0983C90.9943 24.5746 90.8357 25.1648 90.9135 25.7603L92.0266 34.2879L137.72 28.3103L136.607 19.7827C136.446 18.5532 135.317 17.6837 134.088 17.8443L120.283 19.6504C120.261 19.6532 120.24 19.6518 120.219 19.6463C120.198 19.6407 120.179 19.6311 120.162 19.618C120.145 19.6049 120.13 19.5886 120.12 19.57C120.109 19.5514 120.102 19.5308 120.099 19.5095L119.899 17.9705C119.666 16.192 118.756 14.6103 117.336 13.5171C116.151 12.6055 114.73 12.1243 113.261 12.1243Z" fill="#EC535B"/>
</g>
<g clip-path="url(#clip2_1491_18762)">
<path d="M105.889 46.5777C105.847 46.5779 105.807 46.5623 105.777 46.534C105.747 46.5057 105.728 46.4669 105.726 46.4255C105.723 46.384 105.736 46.3432 105.763 46.3112C105.789 46.2793 105.827 46.2587 105.868 46.2536L131.707 42.88C131.75 42.8745 131.793 42.8862 131.827 42.9125C131.861 42.9388 131.884 42.9775 131.889 43.0203C131.892 43.0415 131.891 43.063 131.885 43.0836C131.88 43.1043 131.87 43.1236 131.857 43.1406C131.844 43.1575 131.828 43.1717 131.809 43.1824C131.791 43.193 131.77 43.1999 131.749 43.2027L105.91 46.5763C105.903 46.5773 105.896 46.5777 105.889 46.5777ZM106.58 51.8627C106.539 51.8629 106.499 51.8473 106.468 51.819C106.438 51.7907 106.419 51.7519 106.417 51.7104C106.414 51.669 106.427 51.6282 106.454 51.5962C106.48 51.5643 106.518 51.5437 106.559 51.5386L143.303 46.7412C143.324 46.7381 143.346 46.7392 143.367 46.7446C143.388 46.75 143.408 46.7595 143.425 46.7725C143.442 46.7855 143.456 46.8019 143.467 46.8205C143.478 46.8392 143.485 46.8598 143.488 46.8812C143.491 46.9026 143.489 46.9243 143.484 46.9451C143.478 46.9659 143.468 46.9854 143.455 47.0024C143.441 47.0194 143.425 47.0336 143.406 47.0442C143.387 47.0547 143.367 47.0614 143.345 47.0639L106.601 51.8612C106.594 51.8622 106.587 51.8627 106.58 51.8627ZM108.977 70.1882C108.936 70.1884 108.896 70.1728 108.865 70.1445C108.835 70.1162 108.817 70.0774 108.814 70.036C108.811 69.9945 108.824 69.9537 108.851 69.9218C108.878 69.8898 108.915 69.8692 108.956 69.8641L138.448 66.0135C138.47 66.0104 138.491 66.0116 138.512 66.0169C138.533 66.0223 138.553 66.0318 138.57 66.0448C138.587 66.0579 138.602 66.0742 138.612 66.0928C138.623 66.1115 138.63 66.1321 138.633 66.1535C138.636 66.1749 138.634 66.1966 138.629 66.2174C138.623 66.2383 138.613 66.2577 138.6 66.2747C138.587 66.2917 138.57 66.3059 138.551 66.3165C138.532 66.327 138.512 66.3337 138.49 66.3362L108.998 70.1868C108.991 70.1878 108.984 70.1882 108.977 70.1882ZM109.669 75.4732C109.627 75.4734 109.587 75.4578 109.557 75.4295C109.526 75.4012 109.508 75.3624 109.505 75.3209C109.503 75.2795 109.516 75.2387 109.542 75.2067C109.569 75.1748 109.607 75.1542 109.648 75.1491L134.538 71.8993C134.56 71.8962 134.581 71.8974 134.602 71.9028C134.623 71.9081 134.643 71.9176 134.66 71.9306C134.677 71.9437 134.692 71.96 134.703 71.9787C134.713 71.9973 134.72 72.0179 134.723 72.0393C134.726 72.0607 134.725 72.0825 134.719 72.1033C134.713 72.1241 134.703 72.1436 134.69 72.1606C134.677 72.1776 134.66 72.1917 134.641 72.2023C134.623 72.2129 134.602 72.2196 134.58 72.222L109.69 75.4718C109.683 75.4728 109.676 75.4732 109.669 75.4732ZM112.066 93.7987C112.024 93.7982 111.985 93.7822 111.955 93.7539C111.926 93.7256 111.908 93.6872 111.905 93.6462C111.902 93.6053 111.915 93.5648 111.941 93.533C111.967 93.5012 112.004 93.4803 112.045 93.4745L135.829 90.3692C135.85 90.3664 135.872 90.3678 135.892 90.3734C135.913 90.3789 135.932 90.3885 135.949 90.4015C135.966 90.4145 135.981 90.4308 135.991 90.4493C136.002 90.4678 136.009 90.4883 136.012 90.5095C136.017 90.5523 136.005 90.5955 135.979 90.6298C135.953 90.664 135.914 90.6864 135.871 90.692L112.087 93.7973C112.08 93.7983 112.073 93.7987 112.066 93.7987ZM112.757 99.0838C112.715 99.084 112.675 99.0684 112.645 99.0401C112.615 99.0118 112.596 98.9729 112.593 98.9315C112.591 98.8901 112.604 98.8493 112.631 98.8173C112.657 98.7854 112.695 98.7648 112.736 98.7597L147.267 94.2511C147.288 94.2483 147.31 94.2498 147.33 94.2553C147.351 94.2608 147.37 94.2704 147.387 94.2834C147.404 94.2965 147.419 94.3127 147.429 94.3312C147.44 94.3498 147.447 94.3702 147.45 94.3914C147.455 94.4342 147.443 94.4775 147.417 94.5117C147.391 94.5459 147.352 94.5683 147.309 94.5739L112.778 99.0824C112.771 99.0833 112.764 99.0838 112.757 99.0838ZM115.154 117.409C115.113 117.409 115.073 117.393 115.044 117.365C115.014 117.336 114.996 117.298 114.993 117.257C114.991 117.216 115.004 117.175 115.03 117.144C115.055 117.112 115.092 117.091 115.133 117.085L138.917 113.98C138.938 113.977 138.96 113.978 138.981 113.984C139.001 113.99 139.021 113.999 139.038 114.012C139.055 114.025 139.069 114.041 139.08 114.06C139.09 114.078 139.097 114.099 139.1 114.12C139.105 114.163 139.094 114.206 139.067 114.24C139.041 114.275 139.002 114.297 138.959 114.303L115.175 117.408C115.168 117.409 115.161 117.409 115.154 117.409ZM115.845 122.694C115.804 122.695 115.764 122.679 115.733 122.651C115.703 122.622 115.684 122.583 115.682 122.542C115.679 122.501 115.692 122.46 115.719 122.428C115.745 122.396 115.783 122.375 115.824 122.37L135.974 119.739C135.995 119.736 136.017 119.738 136.038 119.743C136.059 119.748 136.078 119.758 136.095 119.771C136.113 119.784 136.127 119.8 136.138 119.819C136.149 119.837 136.156 119.858 136.159 119.879C136.161 119.901 136.16 119.923 136.154 119.943C136.148 119.964 136.139 119.984 136.125 120.001C136.112 120.018 136.096 120.032 136.077 120.042C136.058 120.053 136.037 120.06 136.016 120.062L115.866 122.693C115.859 122.694 115.852 122.694 115.845 122.694Z" fill="#021C47"/>
<path d="M85.696 45.5475L97.8832 43.9561L99.476 56.1321L87.2889 57.7234L85.696 45.5475Z" fill="white"/>
<path d="M87.2887 57.8857C87.2491 57.8856 87.211 57.8712 87.1812 57.8452C87.1515 57.8191 87.1323 57.7832 87.1271 57.744L85.5346 45.5684C85.5318 45.5472 85.5332 45.5257 85.5388 45.5051C85.5444 45.4844 85.5539 45.4651 85.567 45.4481C85.58 45.4312 85.5963 45.417 85.6148 45.4063C85.6334 45.3957 85.6538 45.3888 85.6751 45.386L97.8616 43.7948C97.9044 43.7892 97.9477 43.8009 97.982 43.8272C98.0162 43.8534 98.0386 43.8922 98.0443 43.935L99.6369 56.1107C99.6397 56.1319 99.6382 56.1534 99.6327 56.174C99.6271 56.1947 99.6175 56.214 99.6045 56.231C99.5914 56.2479 99.5752 56.2621 99.5566 56.2728C99.5381 56.2834 99.5176 56.2903 99.4964 56.2931L87.3098 57.8843C87.3028 57.8852 87.2957 57.8857 87.2887 57.8857ZM85.8787 45.6876L87.4291 57.5405L99.2927 55.9915L97.7423 44.1386L85.8787 45.6876Z" fill="#021C47"/>
<path d="M92.5038 55.1969C92.4013 55.1969 92.3026 55.1583 92.2274 55.0889L88.238 51.4063C88.1593 51.3329 88.1129 51.2313 88.1089 51.1239C88.1049 51.0164 88.1437 50.9117 88.2168 50.8327C88.2899 50.7537 88.3913 50.7068 88.4988 50.7023C88.6064 50.6978 88.7114 50.7361 88.7908 50.8087L92.3825 54.1242L96.0233 46.8705C96.0717 46.7741 96.1565 46.7008 96.259 46.6667C96.3615 46.6327 96.4734 46.6408 96.5699 46.6891C96.6665 46.7375 96.7398 46.8222 96.7739 46.9246C96.8079 47.027 96.7998 47.1387 96.7514 47.2352L92.8678 54.9723C92.834 55.0398 92.782 55.0966 92.7177 55.1362C92.6534 55.1759 92.5793 55.1969 92.5038 55.1969Z" fill="#EC535B"/>
<path d="M88.785 69.1585L100.972 67.5671L102.565 79.7432L90.3778 81.3345L88.785 69.1585Z" fill="white"/>
<path d="M90.3771 81.4963C90.3375 81.4963 90.2993 81.4819 90.2696 81.4558C90.2399 81.4298 90.2207 81.3938 90.2155 81.3546L88.623 69.179C88.6202 69.1578 88.6216 69.1363 88.6272 69.1156C88.6327 69.095 88.6423 69.0757 88.6554 69.0587C88.6684 69.0418 88.6847 69.0276 88.7032 69.0169C88.7218 69.0062 88.7422 68.9993 88.7634 68.9966L100.95 67.4054C100.993 67.3999 101.036 67.4115 101.07 67.4378C101.105 67.4641 101.127 67.5028 101.133 67.5456L102.725 79.7212C102.728 79.7424 102.727 79.764 102.721 79.7846C102.716 79.8053 102.706 79.8246 102.693 79.8415C102.68 79.8585 102.664 79.8727 102.645 79.8833C102.627 79.894 102.606 79.9009 102.585 79.9037L90.3982 81.4948C90.3912 81.4958 90.3841 81.4963 90.3771 81.4963ZM88.967 69.2982L90.5174 81.1511L102.381 79.602L100.831 67.7492L88.967 69.2982Z" fill="#021C47"/>
<path d="M95.5483 78.771C95.4458 78.771 95.3471 78.7324 95.2719 78.6629L91.2825 74.9804C91.2038 74.907 91.1573 74.8055 91.1534 74.698C91.1494 74.5905 91.1882 74.4858 91.2612 74.4068C91.3343 74.3278 91.4357 74.2809 91.5433 74.2765C91.6508 74.272 91.7558 74.3102 91.8352 74.3828L95.427 77.6984L99.0678 70.4447C99.1162 70.3483 99.201 70.275 99.3035 70.241C99.406 70.2069 99.5178 70.215 99.6143 70.2634C99.7109 70.3117 99.7843 70.3964 99.8183 70.4988C99.8523 70.6012 99.8443 70.713 99.7959 70.8094L95.9123 78.5466C95.8785 78.614 95.8265 78.6707 95.7622 78.7104C95.6979 78.75 95.6238 78.771 95.5483 78.771Z" fill="#EC535B"/>
<path d="M91.8739 92.7699L104.061 91.1785L105.654 103.355L93.4667 104.946L91.8739 92.7699Z" fill="white"/>
<path d="M93.4652 105.107C93.4257 105.107 93.3875 105.092 93.3578 105.066C93.3281 105.04 93.3088 105.004 93.3037 104.965L91.7112 92.7896C91.7084 92.7684 91.7099 92.7469 91.7154 92.7262C91.721 92.7056 91.7306 92.6862 91.7436 92.6693C91.7567 92.6524 91.7729 92.6382 91.7915 92.6275C91.81 92.6168 91.8305 92.6099 91.8517 92.6072L104.038 91.016C104.081 91.0105 104.124 91.0221 104.159 91.0484C104.193 91.0747 104.215 91.1134 104.221 91.1562L105.814 103.332C105.819 103.375 105.808 103.418 105.781 103.452C105.755 103.486 105.716 103.509 105.673 103.514L93.4863 105.105C93.4793 105.106 93.4723 105.107 93.4652 105.107ZM92.0553 92.9087L93.6056 104.762L105.469 103.213L103.919 91.3598L92.0553 92.9087Z" fill="#021C47"/>
<path d="M98.6367 102.381C98.5342 102.381 98.4355 102.343 98.3603 102.273L94.3709 98.5908C94.2921 98.5174 94.2457 98.4158 94.2417 98.3083C94.2378 98.2008 94.2765 98.0962 94.3496 98.0172C94.4227 97.9382 94.5241 97.8913 94.6317 97.8868C94.7392 97.8823 94.8442 97.9206 94.9236 97.9932L98.5154 101.309L102.156 94.0551C102.205 93.9586 102.289 93.8853 102.392 93.8513C102.494 93.8173 102.606 93.8254 102.703 93.8737C102.799 93.9221 102.873 94.0068 102.907 94.1092C102.941 94.2116 102.933 94.3233 102.884 94.4198L99.0007 102.157C98.9669 102.224 98.9149 102.281 98.8506 102.321C98.7863 102.36 98.7122 102.381 98.6367 102.381Z" fill="#EC535B"/>
<path d="M94.9626 116.381L107.15 114.79L108.743 126.966L96.5555 128.557L94.9626 116.381Z" fill="white"/>
<path d="M96.5533 128.717C96.5138 128.717 96.4757 128.703 96.446 128.677C96.4163 128.651 96.3972 128.615 96.3921 128.576L94.7995 116.4C94.7939 116.357 94.8055 116.314 94.8318 116.28C94.8581 116.246 94.897 116.223 94.9399 116.218L107.127 114.626C107.148 114.624 107.169 114.625 107.19 114.631C107.211 114.636 107.23 114.646 107.247 114.659C107.264 114.672 107.278 114.688 107.289 114.707C107.299 114.725 107.306 114.745 107.309 114.767L108.902 126.942C108.907 126.985 108.896 127.028 108.869 127.063C108.843 127.097 108.804 127.119 108.761 127.125L96.5747 128.716C96.5676 128.717 96.5605 128.717 96.5533 128.717ZM95.1436 116.519L96.6939 128.372L108.558 126.823L107.007 114.97L95.1436 116.519Z" fill="#021C47"/>
<path d="M101.725 125.992C101.622 125.992 101.524 125.953 101.449 125.884L97.4591 122.201C97.3804 122.128 97.334 122.026 97.33 121.919C97.326 121.811 97.3648 121.707 97.4379 121.628C97.5109 121.549 97.6123 121.502 97.7199 121.497C97.8275 121.493 97.9325 121.531 98.0119 121.604L101.604 124.919L105.244 117.666C105.293 117.569 105.378 117.496 105.48 117.462C105.583 117.428 105.694 117.436 105.791 117.484C105.888 117.533 105.961 117.617 105.995 117.72C106.029 117.822 106.021 117.934 105.973 118.03L102.089 125.768C102.055 125.835 102.003 125.892 101.939 125.931C101.875 125.971 101.8 125.992 101.725 125.992Z" fill="#EC535B"/>
</g>
<g clip-path="url(#clip3_1491_18762)">
<path d="M59.1725 105.445C60.365 102.97 63.2357 96.74 65.1417 94.0976C67.4398 90.9115 75.5411 84.9237 78.1627 82.7642C80.5833 80.7702 84.4224 79.5194 87.1936 81.6935C89.5549 83.546 90.6966 86.881 88.8367 89.7076C87.7194 91.4056 80.8314 99.9161 80.8314 99.9161C83.7471 106.796 81.9126 114.999 76.4937 118.546" fill="white"/>
<path d="M76.4944 118.71C76.4591 118.71 76.4247 118.698 76.3964 118.677C76.3681 118.656 76.3474 118.627 76.3373 118.593C76.3272 118.559 76.3283 118.523 76.3404 118.49C76.3525 118.457 76.3749 118.428 76.4045 118.409C81.7102 114.936 83.5888 106.841 80.681 99.9801C80.6695 99.9528 80.6655 99.9228 80.6697 99.8934C80.6738 99.864 80.6859 99.8363 80.7045 99.8133C80.7733 99.7282 87.6002 91.2896 88.7002 89.6178C90.5619 86.7884 89.3008 83.5545 87.0928 81.8223C85.8656 80.8595 84.3039 80.5152 82.5761 80.827C81.0868 81.0956 79.5566 81.8284 78.2673 82.8905C77.7079 83.3513 76.8954 83.9894 75.9546 84.728C72.4166 87.506 67.0704 91.7041 65.2748 94.1934C63.6223 96.4846 61.2655 101.435 59.8573 104.392C59.6792 104.767 59.5003 105.141 59.3205 105.516C59.3012 105.554 59.2676 105.583 59.2269 105.597C59.1862 105.611 59.1418 105.608 59.103 105.59C59.0643 105.571 59.0345 105.538 59.0199 105.498C59.0054 105.457 59.0073 105.413 59.0253 105.374C59.1782 105.056 59.3588 104.677 59.5615 104.251C60.9744 101.284 63.3392 96.3172 65.0091 94.0019C66.8316 91.4751 72.1999 87.2599 75.7521 84.4705C76.6913 83.7331 77.5024 83.0962 78.0588 82.6378C79.3907 81.5408 80.9743 80.7832 82.5179 80.5047C84.34 80.1761 85.9921 80.5426 87.2951 81.5647C89.6207 83.3892 90.9443 86.803 88.9739 89.7975C87.9085 91.4169 81.7514 99.0396 81.0208 99.9429C83.9332 106.925 81.9945 115.141 76.5839 118.683C76.5573 118.7 76.5262 118.71 76.4944 118.71Z" fill="#021C47"/>
</g>
<defs>
<clipPath id="clip0_1491_18762">
<rect width="87.1404" height="84.5368" fill="white" transform="translate(40.7018 80.2246)"/>
</clipPath>
<clipPath id="clip1_1491_18762">
<rect width="101.867" height="136.528" fill="white" transform="translate(70.725 11.7976)"/>
</clipPath>
<clipPath id="clip2_1491_18762">
<rect width="61.9177" height="85.8386" fill="white" transform="translate(85.5332 42.8787)"/>
</clipPath>
<clipPath id="clip3_1491_18762">
<rect width="30.9182" height="38.3223" fill="white" transform="translate(59.0087 80.3872)"/>
</clipPath>
</defs>
</svg>
