<svg xmlns="http://www.w3.org/2000/svg" width="50" height="50" viewBox="0 0 50 50">
  <g id="Share" transform="translate(-0.299)">
    <circle id="Ellipse_478" data-name="Ellipse 478" cx="25" cy="25" r="25" transform="translate(0.299)" fill="#62d66e"/>
    <path id="Icon_material-share" data-name="Icon material-share" d="M27,24.12a4.368,4.368,0,0,0-2.94,1.155L13.365,19.05A4.91,4.91,0,0,0,13.5,18a4.91,4.91,0,0,0-.135-1.05L23.94,10.785A4.49,4.49,0,1,0,22.5,7.5a4.91,4.91,0,0,0,.135,1.05L12.06,14.715a4.5,4.5,0,1,0,0,6.57l10.68,6.24a4.232,4.232,0,0,0-.12.975A4.38,4.38,0,1,0,27,24.12Z" transform="translate(7.799 7)" fill="#fff"/>
  </g>
</svg>
