<svg width="20" height="20" viewBox="0 0 20 20" fill="none" xmlns="http://www.w3.org/2000/svg">
<g id="Soccer Ball" clip-path="url(#clip0_1159_9954)">
<path id="Vector" d="M19.8438 10V10.1695C19.8273 11.1102 19.6797 12.018 19.4172 12.8766C19.1766 13.6586 18.843 14.3969 18.4328 15.0805C18.4328 15.0805 18.4328 15.0805 18.4273 15.0859C17.9078 15.95 17.257 16.7211 16.5078 17.3828C16.4805 17.4102 16.4586 17.432 16.4312 17.4539C16.4312 17.4539 16.4312 17.4594 16.4258 17.4594C16.2781 17.5852 16.1305 17.7109 15.9773 17.8258C15.5781 18.132 15.1625 18.4055 14.7195 18.6461H14.7141C14.0742 18.9961 13.3906 19.275 12.6742 19.4773C12.5156 19.5211 12.357 19.5594 12.1984 19.5977C11.6242 19.7289 11.0281 19.8055 10.4211 19.8328C10.4156 19.8328 10.4156 19.8328 10.4156 19.8328C10.2734 19.8383 10.1422 19.8438 10 19.8438C9.75937 19.8438 9.52422 19.8328 9.28906 19.8164C7.09609 19.6633 5.10547 18.7883 3.54688 17.4266C3.22969 17.1586 2.93438 16.8633 2.66094 16.557C2.45859 16.3328 2.27266 16.1031 2.09219 15.8625V15.857C1.56172 15.1461 1.12422 14.3531 0.801562 13.5055V13.5C0.402344 12.45 0.172656 11.318 0.161719 10.1258C0.15625 10.082 0.15625 10.0437 0.15625 10V9.94531C0.15625 9.72656 0.167188 9.51328 0.183594 9.3V9.29453C0.2 9.10859 0.216406 8.92813 0.238281 8.74219C0.260156 8.58906 0.282031 8.43594 0.309375 8.28828C0.380469 7.88906 0.473438 7.50625 0.59375 7.12891C0.621094 7.01953 0.653906 6.91016 0.692187 6.80625C1.16797 5.41172 1.94453 4.16484 2.94531 3.13672C3.37188 2.69922 3.83672 2.3 4.33438 1.95C4.4 1.90625 4.46016 1.8625 4.52578 1.82422C5.75078 0.992969 7.18359 0.440625 8.72578 0.249219C8.80781 0.232813 8.89531 0.227344 8.98281 0.216406C9.03203 0.210938 9.08125 0.205469 9.13047 0.2C9.41484 0.167187 9.70469 0.15625 10 0.15625H10.0219C11.6734 0.161719 13.2266 0.566406 14.5883 1.29375C14.643 1.32109 14.7031 1.35391 14.7578 1.38672C15.6492 1.87344 16.4586 2.50234 17.1477 3.23516C17.3609 3.45391 17.5578 3.68359 17.7383 3.91875C17.875 4.08828 17.9953 4.26328 18.1156 4.43828C18.6953 5.275 19.1492 6.21016 19.4391 7.21094C19.6414 7.88359 19.7672 8.58359 19.8164 9.30547C19.8383 9.53516 19.8438 9.76484 19.8438 10Z" fill="url(#paint0_radial_1159_9954)"/>
<path id="Vector_2" d="M4.02492 13.7201C4.02602 13.719 4.04461 13.6834 4.06156 13.6233L2.48438 13.1727C2.69492 12.436 6.03359 8.71945 7.69336 7.26367L8.77508 8.49688C7.01469 10.0418 4.29617 13.218 4.02492 13.7201Z" fill="url(#paint1_linear_1159_9954)"/>
<path id="Vector_3" d="M11.3841 3.95437L9.75 3.81055C9.83695 2.81906 10.3696 0.971719 10.7152 0.460938L12.0852 1.23586L11.3945 0.920859L12.1059 1.27414C11.9523 1.53336 11.4606 3.08539 11.3841 3.95437Z" fill="url(#paint2_linear_1159_9954)"/>
<path id="Vector_4" d="M7.75477 6.85531C5.88008 5.57727 3.85719 4.77391 3.17578 4.70719L3.33547 3.07422C4.50523 3.18906 6.85242 4.25438 8.67898 5.50016L7.75477 6.85531Z" fill="url(#paint3_linear_1159_9954)"/>
<path id="Vector_5" d="M11.5866 18.7902C8.50555 18.4478 4.86227 17.0402 3.66406 16.0098L4.44828 15.0977C5.34734 15.8698 8.7057 17.2595 11.7201 17.5941L11.5866 18.7902Z" fill="url(#paint4_linear_1159_9954)"/>
<path id="Vector_6" d="M12.9529 15.6429C12.517 13.8163 10.9606 10.278 10.9453 10.243L12.0462 9.75684C12.1118 9.90613 13.6622 13.4307 14.1232 15.3639L12.9529 15.6429Z" fill="url(#paint5_linear_1159_9954)"/>
<path id="Vector_7" d="M18.2805 7.76181C16.753 7.13837 14.2024 7.08477 13.7764 7.16735C13.778 7.16681 13.818 7.15915 13.8765 7.1329L13.2109 5.63337C13.8437 5.35337 17.0675 5.49501 18.9001 6.24204L18.2805 7.76181Z" fill="url(#paint6_linear_1159_9954)"/>
<path id="Vector_8" d="M16.2634 15.7138L15.9583 14.5495L16.1109 15.1314L15.9375 14.5555C15.9534 14.55 17.734 13.7029 18.6801 9.40613L19.6311 9.93113C18.5177 14.9853 16.4909 15.6536 16.2634 15.7138Z" fill="url(#paint7_linear_1159_9954)"/>
<path id="Vector_9" d="M17.34 14.7641C17.2579 15.4312 16.8697 16.5633 16.5087 17.3836C16.4814 17.4109 16.4595 17.4328 16.4322 17.4547C16.4322 17.4547 16.4322 17.4602 16.4267 17.4602C16.279 17.5859 16.1314 17.7117 15.9783 17.8266C15.579 18.1328 15.1634 18.4062 14.7204 18.6469H14.715C14.0751 18.9969 13.3915 19.2758 12.6751 19.4781C12.5165 19.5219 12.3579 19.5602 12.1993 19.5984C11.5431 19.2867 10.6572 18.7453 9.98997 17.9906C9.86966 17.8594 9.897 17.6516 10.0392 17.5477C10.8814 16.9406 12.6259 15.2781 13.1072 14.5508C13.1783 14.4414 13.2986 14.3922 13.4243 14.4195C14.2884 14.6328 16.2025 14.5508 16.9954 14.4359C17.1923 14.4086 17.3673 14.5672 17.34 14.7641Z" fill="url(#paint8_linear_1159_9954)"/>
<path id="Vector_10" d="M6.14433 4.85422C6.27995 4.58352 10.3192 2.91774 10.6861 2.95875C11.2401 3.02055 14.2556 6.24493 14.2556 6.40516C14.2556 6.56539 11.8925 10.627 11.7203 10.7009C11.548 10.7747 6.60644 9.7236 6.48011 9.59672C6.35378 9.46985 6.0087 5.12492 6.14433 4.85422Z" fill="url(#paint9_linear_1159_9954)"/>
<path id="Vector_11" d="M14.7625 1.38672C13.4172 1.18438 12.0938 1.27188 11.257 1.27734C11.2133 1.27734 11.175 1.26641 11.1312 1.25C10.5297 0.949219 9.56719 0.489844 8.73047 0.249219C8.8125 0.232813 8.9 0.227344 8.9875 0.216406C9.03672 0.210938 9.08594 0.205469 9.13516 0.2C9.41953 0.167187 9.70937 0.15625 10.0047 0.15625H10.0266C11.6781 0.161719 13.2312 0.566406 14.593 1.29375C14.6477 1.32109 14.7078 1.35391 14.7625 1.38672Z" fill="url(#paint10_linear_1159_9954)"/>
<path id="Vector_12" d="M4.52969 1.82422C4.33828 2.37109 4.33281 3.09297 4.28906 3.75469C4.26719 4.00625 4.27813 4.03359 4.05938 4.16484C2.81797 4.91406 1.40156 6.29219 0.597656 7.12891C0.625 7.01953 0.657812 6.91016 0.696094 6.80625C1.17187 5.41172 1.94844 4.16484 2.94922 3.13672C3.37578 2.69922 3.84063 2.3 4.33828 1.95C4.40391 1.90625 4.46406 1.8625 4.52969 1.82422Z" fill="url(#paint11_linear_1159_9954)"/>
<path id="Vector_13" d="M19.8387 9.99922V10.1687C19.5489 10.5297 19.2459 10.7692 18.9429 10.8168C18.9741 10.0266 18.2046 7.44476 17.6507 6.74914C17.5976 6.68242 17.5818 6.5982 17.6151 6.51945C17.9208 5.79594 17.8623 4.57805 17.7338 3.91797C17.8705 4.0875 17.9908 4.2625 18.1111 4.4375C18.6908 5.27422 19.1447 6.20937 19.4346 7.21016C19.6369 7.88281 19.7627 8.58281 19.8119 9.30469C19.8332 9.53437 19.8387 9.76406 19.8387 9.99922Z" fill="url(#paint12_linear_1159_9954)"/>
<path id="Vector_14" d="M1.45234 11.9139L0.976562 12.1819C0.910937 12.0671 0.429687 11.0335 0.15625 9.94519C0.15625 9.72644 0.167188 9.51316 0.183594 9.29988V9.29441C0.2 9.10847 0.216406 8.928 0.238281 8.74207C0.621094 10.4921 1.35937 11.7553 1.45234 11.9139Z" fill="url(#paint13_linear_1159_9954)"/>
<path id="Vector_15" d="M5.42297 16.8112C5.06148 17.0294 4.28328 17.2493 3.61719 17.4101C3.57234 17.421 3.52531 17.4095 3.48977 17.3789C3.19391 17.1241 2.91719 16.8457 2.66016 16.5575C2.45781 16.3333 2.27188 16.1036 2.09141 15.863V15.8575C1.56094 15.1466 1.12344 14.3536 0.800781 13.5059V13.5005C0.805156 12.9022 0.821016 12.0376 0.887187 11.5333C0.901953 11.4218 1.02938 11.3715 1.11578 11.4442C1.72336 11.9561 3.17914 12.5112 3.67188 12.6331C3.72328 12.6457 3.76539 12.6829 3.77523 12.7348C3.89063 13.3468 5.0057 15.998 5.4618 16.6051C5.51266 16.6734 5.49625 16.7669 5.42297 16.8112Z" fill="url(#paint14_linear_1159_9954)"/>
<path id="Vector_16" opacity="0.8" d="M19.8438 10V10.1695C19.8273 11.1102 19.6797 12.018 19.4172 12.8766C19.1766 13.6586 18.843 14.3969 18.4328 15.0805C18.4328 15.0805 18.4328 15.0805 18.4273 15.0859C17.9078 15.95 17.257 16.7211 16.5078 17.3828C16.4805 17.4102 16.4586 17.432 16.4312 17.4539C16.4312 17.4539 16.4312 17.4594 16.4258 17.4594C16.2781 17.5852 16.1305 17.7109 15.9773 17.8258C15.5781 18.132 15.1625 18.4055 14.7195 18.6461H14.7141C14.0742 18.9961 13.3906 19.275 12.6742 19.4773C12.5156 19.5211 12.357 19.5594 12.1984 19.5977C11.6242 19.7289 11.0281 19.8055 10.4211 19.8328C10.4156 19.8328 10.4156 19.8328 10.4156 19.8328C10.2734 19.8383 10.1422 19.8438 10 19.8438C9.75937 19.8438 9.52422 19.8328 9.28906 19.8164C7.09609 19.6633 5.10547 18.7883 3.54688 17.4266C3.22969 17.1586 2.93438 16.8633 2.66094 16.557C2.45859 16.3328 2.27266 16.1031 2.09219 15.8625V15.857C1.56172 15.1461 1.12422 14.3531 0.801562 13.5055V13.5C0.402344 12.45 0.172656 11.318 0.161719 10.1258C0.15625 10.082 0.15625 10.0437 0.15625 10V9.94531C0.15625 9.72656 0.167188 9.51328 0.183594 9.3V9.29453C0.2 9.10859 0.216406 8.92813 0.238281 8.74219C0.260156 8.58906 0.282031 8.43594 0.309375 8.28828C0.380469 7.88906 0.473438 7.50625 0.59375 7.12891C0.621094 7.01953 0.653906 6.91016 0.692187 6.80625C1.16797 5.41172 1.94453 4.16484 2.94531 3.13672C3.37188 2.69922 3.83672 2.3 4.33438 1.95C4.4 1.90625 4.46016 1.8625 4.52578 1.82422C5.75078 0.992969 7.18359 0.440625 8.72578 0.249219C8.80781 0.232813 8.89531 0.227344 8.98281 0.216406C9.03203 0.210938 9.08125 0.205469 9.13047 0.2C9.41484 0.167187 9.70469 0.15625 10 0.15625H10.0219C11.6734 0.161719 13.2266 0.566406 14.5883 1.29375C14.643 1.32109 14.7031 1.35391 14.7578 1.38672C15.6492 1.87344 16.4586 2.50234 17.1477 3.23516C17.3609 3.45391 17.5578 3.68359 17.7383 3.91875C17.875 4.08828 17.9953 4.26328 18.1156 4.43828C18.6953 5.275 19.1492 6.21016 19.4391 7.21094C19.6414 7.88359 19.7672 8.58359 19.8164 9.30547C19.8383 9.53516 19.8438 9.76484 19.8438 10Z" fill="url(#paint15_radial_1159_9954)"/>
<path id="Vector_17" d="M19.8438 10V10.1695C19.8273 11.1102 19.6797 12.018 19.4172 12.8766C19.1766 13.6586 18.843 14.3969 18.4328 15.0805C18.4328 15.0805 18.4328 15.0805 18.4273 15.0859C17.9078 15.95 17.257 16.7211 16.5078 17.3828C16.4805 17.4102 16.4586 17.432 16.4312 17.4539C16.4312 17.4539 16.4312 17.4594 16.4258 17.4594C16.2781 17.5852 16.1305 17.7109 15.9773 17.8258C15.5781 18.132 15.1625 18.4055 14.7195 18.6461H14.7141C14.0742 18.9961 13.3906 19.275 12.6742 19.4773C12.5156 19.5211 12.357 19.5594 12.1984 19.5977C11.6242 19.7289 11.0281 19.8055 10.4211 19.8328C10.4156 19.8328 10.4156 19.8328 10.4156 19.8328C10.2734 19.8383 10.1422 19.8438 10 19.8438C9.75937 19.8438 9.52422 19.8328 9.28906 19.8164C7.09609 19.6633 5.10547 18.7883 3.54688 17.4266C3.22969 17.1586 2.93438 16.8633 2.66094 16.557C2.45859 16.3328 2.27266 16.1031 2.09219 15.8625V15.857C1.56172 15.1461 1.12422 14.3531 0.801562 13.5055V13.5C0.402344 12.45 0.172656 11.318 0.161719 10.1258C0.15625 10.082 0.15625 10.0437 0.15625 10V9.94531C0.15625 9.72656 0.167188 9.51328 0.183594 9.3V9.29453C0.2 9.10859 0.216406 8.92813 0.238281 8.74219C0.260156 8.58906 0.282031 8.43594 0.309375 8.28828C0.380469 7.88906 0.473438 7.50625 0.59375 7.12891C0.621094 7.01953 0.653906 6.91016 0.692187 6.80625C1.16797 5.41172 1.94453 4.16484 2.94531 3.13672C3.37188 2.69922 3.83672 2.3 4.33438 1.95C4.4 1.90625 4.46016 1.8625 4.52578 1.82422C5.75078 0.992969 7.18359 0.440625 8.72578 0.249219C8.80781 0.232813 8.89531 0.227344 8.98281 0.216406C9.03203 0.210938 9.08125 0.205469 9.13047 0.2C9.41484 0.167187 9.70469 0.15625 10 0.15625H10.0219C11.6734 0.161719 13.2266 0.566406 14.5883 1.29375C14.643 1.32109 14.7031 1.35391 14.7578 1.38672C15.6492 1.87344 16.4586 2.50234 17.1477 3.23516C17.3609 3.45391 17.5578 3.68359 17.7383 3.91875C17.875 4.08828 17.9953 4.26328 18.1156 4.43828C18.6953 5.275 19.1492 6.21016 19.4391 7.21094C19.6414 7.88359 19.7672 8.58359 19.8164 9.30547C19.8383 9.53516 19.8438 9.76484 19.8438 10Z" fill="url(#paint16_radial_1159_9954)"/>
</g>
<defs>
<radialGradient id="paint0_radial_1159_9954" cx="0" cy="0" r="1" gradientUnits="userSpaceOnUse" gradientTransform="translate(6.27688 4.68273) scale(15.488)">
<stop stop-color="#FFFFFE"/>
<stop offset="0.525" stop-color="#E9E4DA"/>
<stop offset="1" stop-color="#ABA8A2"/>
</radialGradient>
<linearGradient id="paint1_linear_1159_9954" x1="4.90794" y1="10.0663" x2="6.13737" y2="11.1072" gradientUnits="userSpaceOnUse">
<stop offset="0.165" stop-color="#CCC8C1" stop-opacity="0"/>
<stop offset="0.311" stop-color="#CCC8C1" stop-opacity="0.5"/>
<stop offset="0.476" stop-color="#A19F99" stop-opacity="0.8"/>
<stop offset="0.525" stop-color="#A19F99"/>
<stop offset="0.62" stop-color="#F0EAE1"/>
<stop offset="0.75" stop-color="#F0E9E0"/>
<stop offset="0.901" stop-color="#F0E9E0" stop-opacity="0"/>
</linearGradient>
<linearGradient id="paint2_linear_1159_9954" x1="11.5487" y1="2.43957" x2="10.2677" y2="2.14365" gradientUnits="userSpaceOnUse">
<stop offset="0.077" stop-color="#F0F0F0" stop-opacity="0"/>
<stop offset="0.235" stop-color="#F0F0F0" stop-opacity="0.8"/>
<stop offset="0.38" stop-color="#F0F0F0"/>
<stop offset="0.454" stop-color="#CCCAC3"/>
<stop offset="0.518" stop-color="#A8A6A2"/>
<stop offset="0.573" stop-color="#CCCAC3"/>
<stop offset="0.673" stop-color="#CCC8C1" stop-opacity="0.5"/>
<stop offset="0.903" stop-color="#E8E3DB" stop-opacity="0"/>
</linearGradient>
<linearGradient id="paint3_linear_1159_9954" x1="6.09063" y1="4.12586" x2="5.45023" y2="5.37109" gradientUnits="userSpaceOnUse">
<stop offset="0.119" stop-color="#E6E1D9" stop-opacity="0"/>
<stop offset="0.317" stop-color="#CCC8C1" stop-opacity="0"/>
<stop offset="0.525" stop-color="#C4C2BB"/>
<stop offset="0.62" stop-color="white"/>
<stop offset="0.734" stop-color="white"/>
<stop offset="0.923" stop-color="white" stop-opacity="0"/>
</linearGradient>
<linearGradient id="paint4_linear_1159_9954" x1="7.78476" y1="16.6862" x2="7.53563" y2="17.7974" gradientUnits="userSpaceOnUse">
<stop stop-color="#B3B0AA" stop-opacity="0"/>
<stop offset="0.264" stop-color="#B3B0AA" stop-opacity="0.8"/>
<stop offset="0.33" stop-color="#ADAAA4" stop-opacity="0.867"/>
<stop offset="0.419" stop-color="#9C9995" stop-opacity="0.957"/>
<stop offset="0.462" stop-color="#918F8B"/>
<stop offset="0.499" stop-color="#8B8985"/>
<stop offset="0.533" stop-color="#807E7B"/>
<stop offset="0.551" stop-color="#868481"/>
<stop offset="0.577" stop-color="#979491"/>
<stop offset="0.605" stop-color="#B4AEAB"/>
<stop offset="0.629" stop-color="#D1CAC6"/>
<stop offset="0.728" stop-color="#D1CAC6"/>
<stop offset="1" stop-color="#D1CAC6" stop-opacity="0"/>
</linearGradient>
<linearGradient id="paint5_linear_1159_9954" x1="12.0024" y1="12.979" x2="13.1771" y2="12.5251" gradientUnits="userSpaceOnUse">
<stop stop-color="#D9D4CF" stop-opacity="0"/>
<stop offset="0.265" stop-color="#D9D4CF" stop-opacity="0.826"/>
<stop offset="0.289" stop-color="#D9D4CF" stop-opacity="0.9"/>
<stop offset="0.321" stop-color="#D6D1CC" stop-opacity="0.9"/>
<stop offset="0.347" stop-color="#CCC7C2" stop-opacity="0.9"/>
<stop offset="0.371" stop-color="#BAB6B0" stop-opacity="0.9"/>
<stop offset="0.374" stop-color="#B8B4AE" stop-opacity="0.9"/>
<stop offset="0.429" stop-color="#A29E99" stop-opacity="0.9"/>
<stop offset="0.494" stop-color="#8C8984" stop-opacity="0.9"/>
<stop offset="0.555" stop-color="#A4A19C" stop-opacity="0.9"/>
<stop offset="0.621" stop-color="#BAB7B1" stop-opacity="0.9"/>
<stop offset="0.645" stop-color="#C3BFBA" stop-opacity="0.9"/>
<stop offset="0.712" stop-color="#D9D4CF" stop-opacity="0.9"/>
<stop offset="0.976" stop-color="#D9D4CF" stop-opacity="0.074"/>
<stop offset="1" stop-color="#D9D4CF" stop-opacity="0"/>
</linearGradient>
<linearGradient id="paint6_linear_1159_9954" x1="16.0717" y1="5.60142" x2="15.9979" y2="7.17305" gradientUnits="userSpaceOnUse">
<stop offset="0.219" stop-color="#B3AFA9" stop-opacity="0"/>
<stop offset="0.349" stop-color="#B3AFA9" stop-opacity="0.5"/>
<stop offset="0.449" stop-color="#B3B0AB"/>
<stop offset="0.53" stop-color="#8A8884"/>
<stop offset="0.62" stop-color="#E0DBD2"/>
<stop offset="0.734" stop-color="#E0DBD2"/>
<stop offset="0.934" stop-color="#E0DCD3" stop-opacity="0"/>
</linearGradient>
<linearGradient id="paint7_linear_1159_9954" x1="17.5934" y1="12.6157" x2="18.4892" y2="13.0226" gradientUnits="userSpaceOnUse">
<stop stop-color="#A5A39D" stop-opacity="0"/>
<stop offset="0.168" stop-color="#A5A39D" stop-opacity="0.8"/>
<stop offset="0.253" stop-color="#9F9E98" stop-opacity="0.863"/>
<stop offset="0.368" stop-color="#8E8E89" stop-opacity="0.949"/>
<stop offset="0.437" stop-color="#80827D"/>
<stop offset="0.53" stop-color="#6E706B"/>
<stop offset="0.64" stop-color="#C4BDB9"/>
<stop offset="0.761" stop-color="#C4BDB9"/>
<stop offset="1" stop-color="#C4C1B9" stop-opacity="0"/>
</linearGradient>
<linearGradient id="paint8_linear_1159_9954" x1="14.6997" y1="18.6775" x2="13.0705" y2="15.0009" gradientUnits="userSpaceOnUse">
<stop stop-color="#292A2A"/>
<stop offset="0.706"/>
<stop offset="1"/>
</linearGradient>
<linearGradient id="paint9_linear_1159_9954" x1="11.5896" y1="10.7583" x2="8.46909" y2="3.71453" gradientUnits="userSpaceOnUse">
<stop stop-color="#373633"/>
<stop offset="0.208"/>
<stop offset="0.54"/>
<stop offset="0.581"/>
<stop offset="0.995"/>
</linearGradient>
<linearGradient id="paint10_linear_1159_9954" x1="11.6289" y1="1.30523" x2="12.0795" y2="-0.565078" gradientUnits="userSpaceOnUse">
<stop/>
<stop offset="1"/>
</linearGradient>
<linearGradient id="paint11_linear_1159_9954" x1="2.19289" y1="4.15008" x2="3.17016" y2="5.01086" gradientUnits="userSpaceOnUse">
<stop/>
<stop offset="1"/>
</linearGradient>
<linearGradient id="paint12_linear_1159_9954" x1="19.9366" y1="7.32062" x2="17.9465" y2="7.37859" gradientUnits="userSpaceOnUse">
<stop stop-color="#292A2A"/>
<stop offset="0.774"/>
<stop offset="1"/>
</linearGradient>
<linearGradient id="paint13_linear_1159_9954" x1="0.756172" y1="10.4089" x2="0.350391" y2="10.5533" gradientUnits="userSpaceOnUse">
<stop stop-color="#CCC8C1" stop-opacity="0"/>
<stop offset="0.143" stop-color="#CCC8C1" stop-opacity="0.5"/>
<stop offset="0.295" stop-color="#C6C2BB"/>
<stop offset="0.424" stop-color="#A8A6A0" stop-opacity="0.88"/>
<stop offset="0.552" stop-color="#A6A49E"/>
<stop offset="0.678" stop-color="#E4DFD6"/>
<stop offset="0.835" stop-color="#F0E9E0"/>
<stop offset="1" stop-color="#F0E9E0" stop-opacity="0"/>
</linearGradient>
<linearGradient id="paint14_linear_1159_9954" x1="2.53383" y1="17.1935" x2="3.51109" y2="12.6091" gradientUnits="userSpaceOnUse">
<stop stop-color="#343432"/>
<stop offset="0.519"/>
<stop offset="1"/>
</linearGradient>
<radialGradient id="paint15_radial_1159_9954" cx="0" cy="0" r="1" gradientUnits="userSpaceOnUse" gradientTransform="translate(6.98606 5.7063) rotate(38.6589) scale(15.1084 19.812)">
<stop offset="0.662" stop-color="#2C2837" stop-opacity="0"/>
<stop offset="1" stop-color="#2C2837"/>
</radialGradient>
<radialGradient id="paint16_radial_1159_9954" cx="0" cy="0" r="1" gradientUnits="userSpaceOnUse" gradientTransform="translate(6.27688 4.68273) scale(15.488)">
<stop stop-color="#FFFFFE" stop-opacity="0.3"/>
<stop offset="0.807" stop-color="#FDFDFC" stop-opacity="0"/>
</radialGradient>
<clipPath id="clip0_1159_9954">
<rect width="20" height="20" fill="white"/>
</clipPath>
</defs>
</svg>
