<svg id="Group_20251" data-name="Group 20251" xmlns="http://www.w3.org/2000/svg" xmlns:xlink="http://www.w3.org/1999/xlink" width="229.789" height="110.933" viewBox="0 0 229.789 110.933">
  <defs>
    <clipPath id="clip-path">
      <rect id="Rectangle_2176" data-name="Rectangle 2176" width="229.789" height="110.933" fill="#fff"/>
    </clipPath>
  </defs>
  <rect id="Rectangle_2175" data-name="Rectangle 2175" width="13.1" height="48.033" transform="translate(126.893 24.11)" fill="#fff"/>
  <g id="Group_20222" data-name="Group 20222" clip-path="url(#clip-path)">
    <path id="Path_17613" data-name="Path 17613" d="M336.584,51.874q10.665,0,17.26,7.125l-6.594,7.885a16.746,16.746,0,0,0-5.091-3.325,14.752,14.752,0,0,0-5.672-1.14,7.483,7.483,0,0,0-3.734.807,2.7,2.7,0,0,0-1.406,2.517,2.658,2.658,0,0,0,1.212,2.281,19.656,19.656,0,0,0,3.83,1.9l4.655,1.9a33.221,33.221,0,0,1,9.987,5.7,11.027,11.027,0,0,1,3.491,8.645,13.428,13.428,0,0,1-5.43,11.115,18.225,18.225,0,0,1-5.963,2.9,27.873,27.873,0,0,1-18.861-1.473,22.621,22.621,0,0,1-8.339-6.65l6.594-7.79a26.375,26.375,0,0,0,6.3,4.655A15.346,15.346,0,0,0,336,90.634a9.105,9.105,0,0,0,4.315-.95,3.123,3.123,0,0,0,1.794-2.945,2.749,2.749,0,0,0-1.358-2.47,26.2,26.2,0,0,0-3.587-1.805l-5.139-2.09a49.378,49.378,0,0,1-5.527-2.565,16.833,16.833,0,0,1-4.072-3.04,12.779,12.779,0,0,1-2.57-3.848,12.246,12.246,0,0,1-.921-4.892A13.3,13.3,0,0,1,320.245,60a12.546,12.546,0,0,1,3.685-4.417,17.176,17.176,0,0,1,5.624-2.756,25,25,0,0,1,7.031-.95" transform="translate(-170.735 -28.518)" fill="#fff"/>
    <path id="Path_17614" data-name="Path 17614" d="M280.546,0a8.367,8.367,0,0,1,5.867,2.28,7.434,7.434,0,0,1,2.473,5.7,7.326,7.326,0,0,1-2.473,5.605,8.366,8.366,0,0,1-5.867,2.28,8.486,8.486,0,0,1-5.964-2.28A7.325,7.325,0,0,1,272.11,7.98a7.432,7.432,0,0,1,2.473-5.7A8.488,8.488,0,0,1,280.546,0" transform="translate(-147.054)" fill="#62d66e"/>
    <path id="Path_17615" data-name="Path 17615" d="M405.993,54.405V65.236H421.05v36.192h13.088V65.236H449.2V54.405Z" transform="translate(-219.407 -29.91)" fill="#fff"/>
    <path id="Path_17616" data-name="Path 17616" d="M109.48,54.406c-1.2,7.285-5.458,33.239-6.428,39.129l-.155.944-.01.059-.006.022-.012.045a3.748,3.748,0,0,1-6.078,2.1A3.605,3.605,0,0,1,95.5,94.129l-.305-7.6c-.032-.634-.08-2.25-.114-2.866A11.7,11.7,0,0,0,84.992,72.077,11.854,11.854,0,0,0,71.816,80.7c-.161.588-.592,2.162-.758,2.77-1.007,3.684-3.036,11.089-4.044,14.775-.159.586-.608,2.213-.758,2.77a3.65,3.65,0,0,1-7.184-.661l-.006-.119-.042-.955c-.3-6.494-.827-19.316-1.155-25.874a20.365,20.365,0,0,0-16.8-18.657l-1.354-.2c-.776-.115-1.6-.093-2.383-.145-1.211.008-37.33,0-37.33,0V65.237s12.425-.085,15.056-.085v36.277H28.147V65.188c3.256.012,6.338.023,8.937.022a10.464,10.464,0,0,1,3.8.691,9.221,9.221,0,0,1,5.8,8.542c.2,7.125.349,19.566.672,26.59a15.264,15.264,0,0,0,15.237,14.32,15.5,15.5,0,0,0,15.344-12.258c1.258-4.544,3.305-12.063,4.57-16.618.162-.571.487-1.79.7-2.544.016.389.036.863.044,1.14.042,1.282.325,8.149.373,9.6a15,15,0,0,0,1.552,5.975c6.663,13.088,26.183,10.7,29.351-3.585.2-.958.445-2.581.614-3.556,1.791-10.245,4.189-25.8,6.31-39.1ZM83.186,83.513s0-.007,0,.007v0a.062.062,0,0,1,0-.011" transform="translate(0 -29.91)" fill="#fff"/>
    <path id="Path_17617" data-name="Path 17617" d="M155.2,208.106a5.619,5.619,0,0,1,2.28,3.523l-2.788.561a3.371,3.371,0,0,0-1.329-2.182,4.272,4.272,0,0,0-2.658-.83,3.928,3.928,0,0,0-2.475.728,2.27,2.27,0,0,0-.938,1.876,1.851,1.851,0,0,0,.535,1.4,3.366,3.366,0,0,0,1.681.741l3.779.792q4.482.97,4.482,4.671a4.569,4.569,0,0,1-1.837,3.817,7.743,7.743,0,0,1-4.86,1.417,8.623,8.623,0,0,1-4.9-1.34,5.1,5.1,0,0,1-2.319-3.741l2.971-.612a3.674,3.674,0,0,0,1.512,2.438,5.139,5.139,0,0,0,3,.83,4.432,4.432,0,0,0,2.7-.728,2.288,2.288,0,0,0,.977-1.928,1.9,1.9,0,0,0-.56-1.48,4.1,4.1,0,0,0-1.889-.792l-3.8-.766q-4.4-1-4.4-4.646a4.445,4.445,0,0,1,1.759-3.664,7.285,7.285,0,0,1,4.652-1.392,7.41,7.41,0,0,1,4.443,1.3" transform="translate(-77.743 -113.692)" fill="#62d66e"/>
    <path id="Path_17618" data-name="Path 17618" d="M190,207.6a6.627,6.627,0,0,1,4.573,1.519,5.091,5.091,0,0,1,1.707,4,5.16,5.16,0,0,1-1.707,4.034A6.592,6.592,0,0,1,190,218.679H184.92V224.7h-2.788V207.6Zm0,8.578a3.718,3.718,0,0,0,2.554-.83,3.084,3.084,0,0,0,0-4.43,3.684,3.684,0,0,0-2.554-.842H184.92v6.1Z" transform="translate(-98.428 -114.129)" fill="#62d66e"/>
    <path id="Path_17619" data-name="Path 17619" d="M233.824,209.409a8.869,8.869,0,0,1,0,12.637,9.4,9.4,0,0,1-12.938,0,8.914,8.914,0,0,1,0-12.65,9.352,9.352,0,0,1,12.938.013m-1.993,10.824a6.082,6.082,0,0,0,1.824-4.493,6.156,6.156,0,0,0-1.824-4.532,6.4,6.4,0,0,0-8.951,0,6.178,6.178,0,0,0-1.811,4.532,6.328,6.328,0,0,0,10.762,4.493" transform="translate(-117.949 -113.692)" fill="#62d66e"/>
    <path id="Path_17620" data-name="Path 17620" d="M277.149,224.7l-6.228-6.817h-2.528V224.7H265.6V207.6h8.209a6.435,6.435,0,0,1,4.338,1.417,5.048,5.048,0,0,1,.156,7.327,6.123,6.123,0,0,1-4,1.519l6.306,6.842Zm-3.336-9.293a3.535,3.535,0,0,0,2.319-.728,2.369,2.369,0,0,0,.886-1.927,2.407,2.407,0,0,0-.886-1.941,3.494,3.494,0,0,0-2.319-.741h-5.42v5.336Z" transform="translate(-143.539 -114.128)" fill="#62d66e"/>
    <path id="Path_17621" data-name="Path 17621" d="M308.283,210.075V224.7h-2.815V210.075h-6.124V207.6h15.088v2.476Z" transform="translate(-161.773 -114.129)" fill="#62d66e"/>
    <path id="Path_17622" data-name="Path 17622" d="M346.986,208.106a5.621,5.621,0,0,1,2.28,3.523l-2.788.561a3.368,3.368,0,0,0-1.329-2.182,4.272,4.272,0,0,0-2.658-.83,3.928,3.928,0,0,0-2.475.728,2.27,2.27,0,0,0-.939,1.876,1.851,1.851,0,0,0,.534,1.4,3.364,3.364,0,0,0,1.681.741l3.779.792q4.482.97,4.482,4.671a4.569,4.569,0,0,1-1.837,3.817,7.744,7.744,0,0,1-4.86,1.417,8.62,8.62,0,0,1-4.9-1.34,5.1,5.1,0,0,1-2.32-3.741l2.971-.612a3.677,3.677,0,0,0,1.512,2.438,5.14,5.14,0,0,0,3,.83,4.43,4.43,0,0,0,2.7-.728,2.288,2.288,0,0,0,.977-1.928,1.9,1.9,0,0,0-.561-1.48,4.092,4.092,0,0,0-1.889-.792l-3.8-.766q-4.4-1-4.4-4.646a4.445,4.445,0,0,1,1.759-3.664,7.285,7.285,0,0,1,4.652-1.392,7.411,7.411,0,0,1,4.443,1.3" transform="translate(-181.386 -113.692)" fill="#62d66e"/>
  </g>
</svg>
