<svg xmlns="http://www.w3.org/2000/svg" width="360" height="320" viewBox="0 0 360 320">
  <path id="warning" d="M350.123,221.01,241.854,40.709c-14.211-23.658-35.949-37.2-59.683-37.2S136.7,17.051,122.488,40.673L14.22,221.01C-.175,244.961-1.75,270.5,9.916,291.088c11.647,20.6,34.392,32.423,62.375,32.423h219.76c27.983,0,50.728-11.82,62.375-32.4C366.092,270.522,364.517,244.979,350.123,221.01ZM182.171,260.367a28.361,28.361,0,1,1,28.386-28.342A28.406,28.406,0,0,1,182.171,260.367Zm29.906-135.839c-.2.567-25.657,63.455-25.657,63.455a4.562,4.562,0,0,1-8.461,0l-25.474-62.906a32.471,32.471,0,0,1-2.362-11.985,32.026,32.026,0,1,1,61.954,11.436Z" transform="translate(-2.171 -3.511)" fill="#62d66e"/>
</svg>
